<svg xmlns="http://www.w3.org/2000/svg" xmlns:xlink="http://www.w3.org/1999/xlink" width="500" zoomAndPan="magnify" viewBox="0 0 375 374.999991" height="500" preserveAspectRatio="xMidYMid meet" version="1.0"><defs><g/><clipPath id="6bfa0d5a2b"><path d="M 262.960938 167.496094 L 286.25 167.496094 L 286.25 190.785156 L 262.960938 190.785156 Z M 262.960938 167.496094 " clip-rule="nonzero"/></clipPath><clipPath id="73a618f426"><path d="M 274.605469 167.496094 C 268.171875 167.496094 262.960938 172.707031 262.960938 179.140625 C 262.960938 185.570312 268.171875 190.785156 274.605469 190.785156 C 281.035156 190.785156 286.25 185.570312 286.25 179.140625 C 286.25 172.707031 281.035156 167.496094 274.605469 167.496094 Z M 274.605469 167.496094 " clip-rule="nonzero"/></clipPath><clipPath id="7eeeabe1de"><path d="M 44.875 102.792969 L 317.875 102.792969 L 317.875 272.292969 L 44.875 272.292969 Z M 44.875 102.792969 " clip-rule="nonzero"/></clipPath><clipPath id="8b0c53fb74"><path d="M 150.996094 126.144531 L 171.996094 126.144531 L 171.996094 147.144531 L 150.996094 147.144531 Z M 150.996094 126.144531 " clip-rule="nonzero"/></clipPath><clipPath id="bc2f2d5320"><path d="M 187.5 232.753906 L 208.5 232.753906 L 208.5 253.753906 L 187.5 253.753906 Z M 187.5 232.753906 " clip-rule="nonzero"/></clipPath><clipPath id="f615274f38"><path d="M 275.714844 195.046875 L 296.714844 195.046875 L 296.714844 216.046875 L 275.714844 216.046875 Z M 275.714844 195.046875 " clip-rule="nonzero"/></clipPath></defs><g clip-path="url(#6bfa0d5a2b)"><g clip-path="url(#73a618f426)"><path fill="#000000" d="M 262.960938 167.496094 L 286.25 167.496094 L 286.25 190.785156 L 262.960938 190.785156 Z M 262.960938 167.496094 " fill-opacity="1" fill-rule="nonzero"/></g></g><g clip-path="url(#7eeeabe1de)"><path fill="#000000" d="M 137.230469 102.792969 L 150.535156 152.875 L 317.839844 146.640625 L 160.164062 204.992188 L 183.324219 272.230469 L 119.585938 224.792969 L 53.769531 261.832031 L 87.972656 197.195312 L 44.851562 161.195312 L 104.207031 155.996094 Z M 137.230469 102.792969 " fill-opacity="1" fill-rule="nonzero"/></g><path stroke-linecap="butt" transform="matrix(1.099752, 0, 0, 1.099752, 23.297065, 147.707642)" fill="none" stroke-linejoin="miter" d="M 121.000098 28.851825 C 121.259389 28.468216 121.593271 28.333242 122.008848 28.4398 C 122.420872 28.54991 122.76541 28.766578 123.038909 29.086253 C 123.312408 29.405927 123.355032 29.725601 123.166779 30.045276 C 122.847105 30.563858 122.459944 31.309765 122.008848 32.286548 C 121.561304 33.252674 121.028513 34.293392 120.403372 35.401596 C 119.778232 36.502696 119.046533 37.557621 118.211828 38.566371 C 117.384226 39.575121 116.450067 40.399171 115.40935 41.038519 C 114.372184 41.68142 113.196493 42.001094 111.882277 42.001094 C 110.766969 42.001094 109.857673 41.68142 109.165045 41.038519 C 108.475969 40.399171 107.978698 39.53605 107.676784 38.449157 C 107.378421 37.362265 107.22924 36.165262 107.22924 34.851046 C 107.22924 34.243665 107.261207 33.600764 107.325142 32.929448 C 107.385525 32.258132 107.481427 31.554849 107.605745 30.819598 C 106.582787 30.748559 105.581141 30.652657 104.604359 30.528339 C 103.627576 30.404021 102.679209 30.226424 101.759257 29.9991 C 101.467999 30.514131 101.180292 31.039818 100.889033 31.569056 C 100.601326 32.094743 100.313619 32.609774 100.022361 33.117701 C 98.93902 35.007331 97.678082 36.786851 96.250204 38.449157 C 94.829429 40.115016 93.3092 41.457648 91.693069 42.480605 C 90.08049 43.503563 88.414632 44.015042 86.688391 44.015042 C 84.507502 44.015042 82.738637 43.620777 81.378246 42.832247 C 80.017854 42.050821 79.026864 41.038519 78.401723 39.795341 C 77.776582 38.548612 77.464012 37.266363 77.464012 35.952146 C 77.464012 34.641481 77.730407 33.387648 78.263197 32.190645 C 78.785332 30.986539 79.527687 30.013308 80.48671 29.260298 C 81.449284 28.503735 82.571696 28.123678 83.850393 28.123678 C 84.326353 28.123678 84.567885 28.315483 84.567885 28.699092 C 84.567885 29.761121 85.022532 30.620689 85.938932 31.277798 C 86.85178 31.934906 87.963536 32.261684 89.277752 32.261684 C 90.77667 32.261684 92.161925 31.895835 93.426414 31.160584 C 94.690904 30.418229 95.866595 29.420135 96.953487 28.173405 C 94.491995 26.930227 92.53843 25.317648 91.092792 23.332116 C 89.65781 21.346583 88.936767 19.155038 88.936767 16.757481 C 88.936767 15.056103 89.295512 13.628225 90.016555 12.480949 C 90.734046 11.333674 91.682413 10.452794 92.861656 9.845412 C 94.051555 9.234479 95.319597 8.929013 96.672884 8.929013 C 98.491476 8.929013 99.823452 9.40142 100.668813 10.346236 C 101.521278 11.294603 101.943958 12.324664 101.943958 13.439972 C 101.975926 13.791614 101.894231 14.082873 101.698875 14.310197 C 101.510622 14.526865 101.240675 14.622767 100.889033 14.5908 C 100.281652 14.526865 99.663615 14.608559 99.038474 14.835883 C 98.413333 15.056103 97.894751 15.475232 97.479174 16.100373 C 97.067149 16.725514 96.861137 17.631257 96.861137 18.821156 C 96.861137 21.282648 97.752673 23.264629 99.542849 24.774202 C 99.770173 24.415456 99.983289 24.049607 100.18575 23.683757 C 100.398866 23.317908 100.615534 22.941403 100.842858 22.557793 C 103.272382 18.174704 105.588245 14.779052 107.793998 12.363735 C 110.003302 9.941315 112.102497 8.261249 114.084477 7.323538 C 116.07001 6.378722 117.945432 5.906315 119.710745 5.906315 C 121.405019 5.906315 122.651748 6.364515 123.450934 7.277362 C 124.246568 8.183106 124.644385 9.29131 124.644385 10.605527 C 124.612417 12.143515 124.253672 13.464836 123.568148 14.565936 C 122.879072 15.667036 122.023055 16.217587 121.000098 16.217587 C 120.680423 16.217587 120.389165 16.13234 120.133425 15.961847 C 119.881238 15.780698 119.582875 15.706108 119.231233 15.738075 C 118.744618 15.738075 118.215379 16.157204 117.636414 16.991909 C 117.068104 17.81951 116.474931 19.226077 115.867549 21.211609 C 115.579843 22.2026 115.295688 23.261077 115.022189 24.387041 C 114.748689 25.502349 114.613716 26.528858 114.613716 27.455914 C 114.613716 28.450456 114.798417 29.256746 115.164266 29.881887 C 115.540771 30.507027 116.173016 30.819598 117.061 30.819598 C 117.803355 30.819598 118.535054 30.666865 119.252545 30.36495 C 119.973588 30.059483 120.556106 29.555108 121.000098 28.851825 Z M 108.33034 27.551816 C 108.973241 25.306992 109.569966 23.52392 110.124068 22.195496 C 110.688826 20.867072 111.143474 19.805043 111.495116 19.009409 C 111.846757 18.210223 112.024354 17.492732 112.024354 16.849831 C 112.024354 16.398735 111.83255 16.171411 111.44894 16.171411 C 111.129266 16.171411 110.791832 16.292177 110.44019 16.533709 C 110.088549 16.778793 109.562862 17.311583 108.859579 18.139184 C 107.897004 19.389466 106.977052 20.75341 106.09262 22.231015 C 105.218844 23.697965 104.348619 25.218194 103.481947 26.78815 C 104.18523 27.00837 104.941793 27.175311 105.755186 27.292525 C 106.575683 27.402635 107.435252 27.487881 108.33034 27.551816 Z M 144.425119 28.851825 C 144.620476 28.564118 144.925942 28.45756 145.337967 28.535703 C 145.753544 28.613845 146.112289 28.78789 146.417756 29.061389 C 146.723222 29.334888 146.776501 29.665218 146.581145 30.045276 C 146.137153 31.00785 145.554635 31.998841 144.837144 33.021798 C 144.116101 34.048308 143.217461 34.900773 142.141224 35.589849 C 141.068539 36.278924 139.754323 36.61991 138.191471 36.61991 L 137.89666 36.61991 C 136.781352 38.253801 135.477791 39.557362 133.985978 40.534144 C 132.501268 41.510927 130.988143 42.001094 129.450155 42.001094 C 128.075555 42.001094 126.94604 41.585517 126.061607 40.757916 C 125.187831 39.923211 124.91078 38.541508 125.230454 36.61991 C 125.322805 36.083568 125.152312 35.795861 124.715423 35.763893 C 124.285639 35.724822 124.008588 36.012529 123.88427 36.61991 C 123.532628 38.385223 123.170331 40.146983 122.804481 41.905192 C 122.438632 43.6634 122.019504 45.27598 121.550648 46.746481 C 121.088896 48.224087 120.556106 49.399778 119.945173 50.273554 C 119.334239 51.157986 118.602541 51.598427 117.742972 51.598427 C 116.553073 51.598427 115.700608 51.307168 115.174922 50.731754 C 114.645683 50.159892 114.379288 49.346499 114.379288 48.291574 C 114.379288 46.81752 114.851696 44.895922 115.796511 42.526781 C 116.741326 40.161191 117.821115 37.40844 119.032325 34.275632 C 119.351999 33.440927 119.678777 32.570702 120.016211 31.664959 C 120.350093 30.748559 120.680423 29.810848 121.000098 28.851825 C 121.77442 26.546618 122.413768 24.681851 122.921695 23.261077 C 123.436726 21.833198 123.894926 20.742754 124.292743 19.993295 C 124.69056 19.243837 125.099033 18.721702 125.511057 18.433995 C 125.926634 18.146288 126.438113 18.000659 127.045494 18.000659 C 127.883751 18.000659 128.427197 18.160496 128.675833 18.48017 C 128.935124 18.799845 129.031026 19.183454 128.967091 19.627446 C 128.906708 19.979087 129.052338 20.213515 129.40398 20.330729 C 129.752069 20.440839 130.121471 20.305866 130.50508 19.922256 C 131.339785 19.087551 132.149627 18.558313 132.931053 18.338093 C 133.712479 18.114321 134.472593 18.000659 135.214948 18.000659 C 137.097474 18.000659 138.614151 18.647111 139.761427 19.943568 C 140.919358 21.243577 141.494772 23.026649 141.494772 25.299888 C 141.494772 26.322846 141.413077 27.331596 141.249688 28.322586 C 141.093403 29.317129 140.869631 30.2726 140.581924 31.196103 C 141.285207 31.196103 141.956523 31.011402 142.595872 30.645553 C 143.238772 30.276151 143.846154 29.679426 144.425119 28.851825 Z M 130.363002 32.062776 C 131.158636 32.062776 131.86192 31.824796 132.472853 31.348836 C 133.080234 30.862221 133.563297 30.276151 133.914939 29.590628 C 134.266581 28.901552 134.440626 28.223132 134.440626 27.551816 C 134.440626 26.848533 134.234613 26.248255 133.819037 25.758088 C 133.407012 25.257265 132.735696 25.00863 131.805089 25.00863 C 131.03787 25.00863 130.359451 25.235954 129.766277 25.687049 C 129.173104 26.131042 128.7078 26.699351 128.370366 27.388427 C 128.036484 28.073951 127.865991 28.77013 127.865991 29.473414 C 127.865991 30.176697 128.057796 30.784078 128.441405 31.299109 C 128.825014 31.807036 129.464363 32.062776 130.363002 32.062776 Z M 167.274727 28.851825 C 167.46298 28.564118 167.764894 28.45756 168.176919 28.535703 C 168.599599 28.613845 168.961897 28.78789 169.267363 29.061389 C 169.57283 29.334888 169.626109 29.665218 169.430753 30.045276 C 168.98676 31.00785 168.404243 31.998841 167.686752 33.021798 C 166.965709 34.048308 166.067069 34.900773 164.990832 35.589849 C 163.921699 36.278924 162.600379 36.61991 161.030423 36.61991 L 160.455009 36.61991 C 159.275766 38.253801 157.862095 39.557362 156.213997 40.534144 C 154.565898 41.510927 152.843209 42.001094 151.045929 42.001094 C 148.904111 42.001094 147.131695 41.280051 145.725128 39.845069 C 144.318561 38.39943 143.615278 36.428106 143.615278 33.938198 C 143.615278 32.140918 143.942056 30.308119 144.599164 28.4398 C 145.256272 26.56793 146.172672 24.838137 147.351915 23.261077 C 148.541814 21.676913 149.930621 20.401768 151.52544 19.442745 C 153.127364 18.48017 154.889124 18.000659 156.810722 18.000659 C 158.121387 18.000659 159.307733 18.267054 160.362659 18.796293 C 161.417584 19.321979 162.255841 20.192204 162.880982 21.410518 C 163.506122 22.621728 163.818693 24.237859 163.818693 26.262463 C 163.818693 27.956737 163.580713 29.601284 163.104754 31.196103 L 163.431532 31.196103 C 164.134815 31.196103 164.806131 31.011402 165.449032 30.645553 C 166.08838 30.276151 166.695761 29.679426 167.274727 28.851825 Z M 153.788024 32.062776 C 154.583658 32.062776 155.286941 31.824796 155.897874 31.348836 C 156.505255 30.862221 156.984767 30.276151 157.336409 29.590628 C 157.68805 28.901552 157.865647 28.223132 157.865647 27.551816 C 157.865647 26.848533 157.659635 26.248255 157.244058 25.758088 C 156.828482 25.257265 156.157166 25.00863 155.23011 25.00863 C 154.462892 25.00863 153.784472 25.235954 153.191299 25.687049 C 152.594573 26.131042 152.12927 26.699351 151.795388 27.388427 C 151.457954 28.073951 151.291013 28.77013 151.291013 29.473414 C 151.291013 30.176697 151.482817 30.784078 151.866426 31.299109 C 152.246484 31.807036 152.889384 32.062776 153.788024 32.062776 Z M 170.247698 42.001094 C 168.553424 42.001094 167.370629 41.528686 166.699313 40.580319 C 166.024445 39.635504 165.690563 38.459813 165.690563 37.053246 C 165.690563 35.834932 165.843297 34.506508 166.148763 33.071526 C 166.450678 31.632991 166.841391 30.226424 167.31735 28.851825 C 168.951241 24.181028 170.332944 20.263242 171.466012 17.098467 C 172.606184 13.926588 173.707284 11.532582 174.758657 9.912899 C 175.813582 8.296768 176.98217 7.486927 178.264419 7.486927 C 179.255409 7.486927 179.88055 7.863432 180.139841 8.61289 C 180.395581 9.362349 180.154049 10.491865 179.411694 12.001438 C 178.108133 14.654735 176.98217 17.112675 176.037354 19.371706 C 175.092539 21.627186 174.346633 23.765452 173.799634 25.782952 C 173.540343 26.702903 173.359194 27.590887 173.249084 28.4398 C 173.138974 29.285161 173.245532 29.974237 173.565207 30.503475 C 173.884881 31.036266 174.52423 31.299109 175.486804 31.299109 C 176.314406 31.299109 177.042553 31.085993 177.667693 30.656209 C 178.292834 30.21932 178.857592 29.615491 179.365519 28.851825 C 179.62481 28.468216 179.958692 28.333242 180.374269 28.4398 C 180.796949 28.54991 181.137935 28.766578 181.404331 29.086253 C 181.67783 29.405927 181.720453 29.725601 181.5322 30.045276 C 181.212526 30.563858 180.825365 31.309765 180.374269 32.286548 C 179.926725 33.252674 179.393935 34.293392 178.768794 35.401596 C 178.143653 36.502696 177.411954 37.557621 176.577249 38.566371 C 175.749648 39.575121 174.815488 40.399171 173.774771 41.038519 C 172.737605 41.68142 171.561914 42.001094 170.247698 42.001094 Z M 202.218679 28.851825 C 202.406931 28.564118 202.708846 28.45756 203.120871 28.535703 C 203.543551 28.613845 203.905849 28.78789 204.211315 29.061389 C 204.516782 29.334888 204.570061 29.665218 204.374704 30.045276 C 203.930712 31.00785 203.348195 31.998841 202.630703 33.021798 C 201.90966 34.048308 201.01102 34.900773 199.934784 35.589849 C 198.865651 36.278924 197.54433 36.61991 195.974374 36.61991 L 195.398961 36.61991 C 194.219718 38.253801 192.806047 39.557362 191.157948 40.534144 C 189.50985 41.510927 187.787161 42.001094 185.989881 42.001094 C 183.848063 42.001094 182.075647 41.280051 180.66908 39.845069 C 179.262513 38.39943 178.559229 36.428106 178.559229 33.938198 C 178.559229 32.140918 178.886008 30.308119 179.543116 28.4398 C 180.200224 26.56793 181.116624 24.838137 182.299419 23.261077 C 183.485765 21.676913 184.874573 20.401768 186.469392 19.442745 C 188.071316 18.48017 189.833076 18.000659 191.754674 18.000659 C 193.06889 18.000659 194.251685 18.267054 195.30661 18.796293 C 196.361535 19.321979 197.199792 20.192204 197.824933 21.410518 C 198.450074 22.621728 198.762645 24.237859 198.762645 26.262463 C 198.762645 27.956737 198.524665 29.601284 198.048705 31.196103 L 198.375483 31.196103 C 199.078767 31.196103 199.750083 31.011402 200.392983 30.645553 C 201.032332 30.276151 201.639713 29.679426 202.218679 28.851825 Z M 188.731976 32.062776 C 189.527609 32.062776 190.230893 31.824796 190.841826 31.348836 C 191.449207 30.862221 191.932271 30.276151 192.28036 29.590628 C 192.632002 28.901552 192.809599 28.223132 192.809599 27.551816 C 192.809599 26.848533 192.603587 26.248255 192.18801 25.758088 C 191.775985 25.257265 191.101117 25.00863 190.174062 25.00863 C 189.406844 25.00863 188.728424 25.235954 188.13525 25.687049 C 187.538525 26.131042 187.076773 26.699351 186.739339 27.388427 C 186.401905 28.073951 186.234964 28.77013 186.234964 29.473414 C 186.234964 30.176697 186.426769 30.784078 186.810378 31.299109 C 187.193987 31.807036 187.833336 32.062776 188.731976 32.062776 Z M 220.83793 28.851825 C 221.09367 28.468216 221.424 28.333242 221.821817 28.4398 C 222.226737 28.54991 222.564171 28.766578 222.830567 29.086253 C 223.104066 29.405927 223.160897 29.725601 223.004611 30.045276 C 222.748872 30.592274 222.368815 31.35594 221.867992 32.332723 C 221.377824 33.309505 220.756236 34.346671 220.006777 35.447771 C 219.253766 36.552423 218.340919 37.596693 217.264682 38.591235 C 216.191997 39.582225 214.963027 40.392067 213.570668 41.017208 C 212.181861 41.642348 210.587041 41.951367 208.789761 41.951367 C 206.679911 41.951367 205.010501 41.507375 203.774427 40.615839 C 202.549009 39.717199 201.7072 38.580579 201.256104 37.20598 C 200.80856 35.824276 200.684242 34.38219 200.879599 32.883273 C 201.067851 31.3737 201.511843 30.031068 202.215127 28.851825 L 202.414035 28.557014 C 203.273604 27.409739 204.126069 26.155905 204.97143 24.795513 C 205.820342 23.438674 206.697671 22.156425 207.596311 20.952318 C 208.494951 19.751763 209.418454 18.757221 210.373925 17.975795 C 211.332948 17.194369 212.323938 16.803656 213.350448 16.803656 C 214.856469 16.803656 215.968225 17.155298 216.689268 17.858581 C 217.406759 18.561865 217.751297 19.297116 217.71933 20.060782 C 217.71933 20.444391 217.552389 20.764065 217.214955 21.023357 C 216.881073 21.282648 216.476152 21.517076 216.007296 21.72664 C 215.549097 21.929101 215.140624 22.18484 214.788982 22.486755 C 214.43734 22.792221 214.263296 23.182934 214.263296 23.658894 C 214.263296 23.950152 214.487068 24.529118 214.93106 25.395791 C 215.385708 26.255359 215.865219 27.221486 216.373146 28.301275 C 216.888177 29.370408 217.24337 30.404021 217.438727 31.395011 C 218.173978 31.363044 218.80267 31.110857 219.324805 30.631345 C 219.857596 30.148282 220.361971 29.555108 220.83793 28.851825 Z M 207.067072 32.062776 C 208.121997 32.062776 208.938943 31.725342 209.517908 31.054026 C 210.093322 30.38271 210.384581 29.551556 210.384581 28.557014 C 210.384581 27.9816 210.295782 27.391979 210.114634 26.78815 C 209.933485 26.180769 209.670642 25.555628 209.319 24.912727 C 208.995774 24.273379 208.615716 24.273379 208.168172 24.912727 C 207.560791 25.811367 206.910787 26.717111 206.225263 27.633511 C 205.536187 28.539255 204.921702 29.341992 204.38536 30.045276 C 204.38536 30.624241 204.630444 31.103753 205.120611 31.487362 C 205.621434 31.870971 206.271438 32.062776 207.067072 32.062776 Z M 207.067072 32.062776 " stroke="#000000" stroke-width="12.12" stroke-opacity="1" stroke-miterlimit="4"/><g fill="#ffffff" fill-opacity="1"><g transform="translate(110.074386, 193.897234)"><g><path d="M 46.296875 -14.46875 C 46.578125 -14.882812 46.941406 -15.03125 47.390625 -14.90625 C 47.847656 -14.78125 48.226562 -14.539062 48.53125 -14.1875 C 48.832031 -13.84375 48.878906 -13.492188 48.671875 -13.140625 C 48.316406 -12.578125 47.890625 -11.757812 47.390625 -10.6875 C 46.898438 -9.613281 46.3125 -8.46875 45.625 -7.25 C 44.9375 -6.039062 44.132812 -4.878906 43.21875 -3.765625 C 42.3125 -2.660156 41.285156 -1.753906 40.140625 -1.046875 C 38.992188 -0.347656 37.703125 0 36.265625 0 C 35.023438 0 34.023438 -0.347656 33.265625 -1.046875 C 32.515625 -1.753906 31.972656 -2.707031 31.640625 -3.90625 C 31.304688 -5.101562 31.140625 -6.421875 31.140625 -7.859375 C 31.140625 -8.535156 31.175781 -9.238281 31.25 -9.96875 C 31.320312 -10.707031 31.425781 -11.484375 31.5625 -12.296875 C 30.4375 -12.367188 29.335938 -12.472656 28.265625 -12.609375 C 27.191406 -12.753906 26.144531 -12.953125 25.125 -13.203125 C 24.8125 -12.628906 24.492188 -12.050781 24.171875 -11.46875 C 23.859375 -10.894531 23.539062 -10.328125 23.21875 -9.765625 C 22.019531 -7.691406 20.640625 -5.738281 19.078125 -3.90625 C 17.515625 -2.070312 15.84375 -0.59375 14.0625 0.53125 C 12.289062 1.65625 10.453125 2.21875 8.546875 2.21875 C 6.160156 2.21875 4.21875 1.785156 2.71875 0.921875 C 1.21875 0.0546875 0.128906 -1.054688 -0.546875 -2.421875 C -1.234375 -3.796875 -1.578125 -5.207031 -1.578125 -6.65625 C -1.578125 -8.09375 -1.285156 -9.46875 -0.703125 -10.78125 C -0.128906 -12.101562 0.679688 -13.175781 1.734375 -14 C 2.796875 -14.832031 4.03125 -15.25 5.4375 -15.25 C 5.96875 -15.25 6.234375 -15.039062 6.234375 -14.625 C 6.234375 -13.457031 6.734375 -12.515625 7.734375 -11.796875 C 8.734375 -11.078125 9.957031 -10.71875 11.40625 -10.71875 C 13.050781 -10.71875 14.566406 -11.117188 15.953125 -11.921875 C 17.347656 -12.734375 18.644531 -13.828125 19.84375 -15.203125 C 17.132812 -16.578125 14.988281 -18.351562 13.40625 -20.53125 C 11.820312 -22.707031 11.03125 -25.117188 11.03125 -27.765625 C 11.03125 -29.628906 11.425781 -31.191406 12.21875 -32.453125 C 13.007812 -33.722656 14.054688 -34.691406 15.359375 -35.359375 C 16.660156 -36.023438 18.050781 -36.359375 19.53125 -36.359375 C 21.53125 -36.359375 22.992188 -35.835938 23.921875 -34.796875 C 24.859375 -33.765625 25.328125 -32.632812 25.328125 -31.40625 C 25.367188 -31.019531 25.28125 -30.703125 25.0625 -30.453125 C 24.851562 -30.203125 24.554688 -30.097656 24.171875 -30.140625 C 23.503906 -30.210938 22.828125 -30.125 22.140625 -29.875 C 21.453125 -29.625 20.878906 -29.15625 20.421875 -28.46875 C 19.960938 -27.789062 19.734375 -26.800781 19.734375 -25.5 C 19.734375 -22.78125 20.722656 -20.597656 22.703125 -18.953125 C 22.941406 -19.335938 23.175781 -19.734375 23.40625 -20.140625 C 23.632812 -20.546875 23.875 -20.957031 24.125 -21.375 C 26.789062 -26.195312 29.335938 -29.9375 31.765625 -32.59375 C 34.203125 -35.25 36.507812 -37.09375 38.6875 -38.125 C 40.875 -39.164062 42.929688 -39.6875 44.859375 -39.6875 C 46.722656 -39.6875 48.09375 -39.1875 48.96875 -38.1875 C 49.851562 -37.1875 50.296875 -35.960938 50.296875 -34.515625 C 50.265625 -32.828125 49.867188 -31.375 49.109375 -30.15625 C 48.359375 -28.945312 47.421875 -28.34375 46.296875 -28.34375 C 45.941406 -28.34375 45.625 -28.4375 45.34375 -28.625 C 45.0625 -28.820312 44.726562 -28.90625 44.34375 -28.875 C 43.8125 -28.875 43.226562 -28.414062 42.59375 -27.5 C 41.957031 -26.582031 41.304688 -25.035156 40.640625 -22.859375 C 40.328125 -21.765625 40.019531 -20.597656 39.71875 -19.359375 C 39.414062 -18.128906 39.265625 -17.007812 39.265625 -16 C 39.265625 -14.90625 39.46875 -14.015625 39.875 -13.328125 C 40.28125 -12.640625 40.976562 -12.296875 41.96875 -12.296875 C 42.769531 -12.296875 43.566406 -12.460938 44.359375 -12.796875 C 45.148438 -13.128906 45.796875 -13.6875 46.296875 -14.46875 Z M 32.359375 -15.890625 C 33.054688 -18.347656 33.710938 -20.304688 34.328125 -21.765625 C 34.953125 -23.234375 35.457031 -24.40625 35.84375 -25.28125 C 36.226562 -26.164062 36.421875 -26.957031 36.421875 -27.65625 C 36.421875 -28.144531 36.207031 -28.390625 35.78125 -28.390625 C 35.4375 -28.390625 35.066406 -28.257812 34.671875 -28 C 34.285156 -27.738281 33.707031 -27.148438 32.9375 -26.234375 C 31.882812 -24.859375 30.875 -23.359375 29.90625 -21.734375 C 28.9375 -20.117188 27.976562 -18.453125 27.03125 -16.734375 C 27.800781 -16.484375 28.632812 -16.296875 29.53125 -16.171875 C 30.425781 -16.054688 31.367188 -15.960938 32.359375 -15.890625 Z M 32.359375 -15.890625 "/></g></g></g><g fill="#ffffff" fill-opacity="1"><g transform="translate(155.155517, 193.897234)"><g><path d="M 26.96875 -14.46875 C 27.175781 -14.78125 27.507812 -14.890625 27.96875 -14.796875 C 28.425781 -14.710938 28.820312 -14.519531 29.15625 -14.21875 C 29.488281 -13.925781 29.550781 -13.566406 29.34375 -13.140625 C 28.851562 -12.085938 28.210938 -11 27.421875 -9.875 C 26.628906 -8.75 25.644531 -7.804688 24.46875 -7.046875 C 23.289062 -6.285156 21.835938 -5.90625 20.109375 -5.90625 L 19.796875 -5.90625 C 18.566406 -4.113281 17.128906 -2.679688 15.484375 -1.609375 C 13.847656 -0.535156 12.1875 0 10.5 0 C 8.988281 0 7.75 -0.457031 6.78125 -1.375 C 5.8125 -2.289062 5.503906 -3.800781 5.859375 -5.90625 C 5.960938 -6.507812 5.773438 -6.828125 5.296875 -6.859375 C 4.828125 -6.898438 4.519531 -6.582031 4.375 -5.90625 C 3.988281 -3.976562 3.59375 -2.046875 3.1875 -0.109375 C 2.789062 1.828125 2.335938 3.601562 1.828125 5.21875 C 1.316406 6.84375 0.722656 8.140625 0.046875 9.109375 C -0.617188 10.078125 -1.425781 10.5625 -2.375 10.5625 C -3.675781 10.5625 -4.613281 10.242188 -5.1875 9.609375 C -5.769531 8.972656 -6.0625 8.078125 -6.0625 6.921875 C -6.0625 5.296875 -5.539062 3.179688 -4.5 0.578125 C -3.46875 -2.023438 -2.285156 -5.050781 -0.953125 -8.5 C -0.597656 -9.414062 -0.238281 -10.375 0.125 -11.375 C 0.5 -12.375 0.863281 -13.40625 1.21875 -14.46875 C 2.0625 -17 2.765625 -19.046875 3.328125 -20.609375 C 3.890625 -22.171875 4.390625 -23.363281 4.828125 -24.1875 C 5.265625 -25.019531 5.710938 -25.59375 6.171875 -25.90625 C 6.628906 -26.226562 7.191406 -26.390625 7.859375 -26.390625 C 8.773438 -26.390625 9.375 -26.210938 9.65625 -25.859375 C 9.9375 -25.503906 10.039062 -25.082031 9.96875 -24.59375 C 9.90625 -24.207031 10.066406 -23.953125 10.453125 -23.828125 C 10.835938 -23.703125 11.242188 -23.851562 11.671875 -24.28125 C 12.578125 -25.195312 13.460938 -25.773438 14.328125 -26.015625 C 15.191406 -26.265625 16.03125 -26.390625 16.84375 -26.390625 C 18.914062 -26.390625 20.582031 -25.675781 21.84375 -24.25 C 23.113281 -22.820312 23.75 -20.863281 23.75 -18.375 C 23.75 -17.238281 23.660156 -16.125 23.484375 -15.03125 C 23.304688 -13.945312 23.0625 -12.894531 22.75 -11.875 C 23.519531 -11.875 24.253906 -12.078125 24.953125 -12.484375 C 25.660156 -12.890625 26.332031 -13.550781 26.96875 -14.46875 Z M 11.5 -10.921875 C 12.382812 -10.921875 13.160156 -11.1875 13.828125 -11.71875 C 14.492188 -12.25 15.019531 -12.890625 15.40625 -13.640625 C 15.800781 -14.398438 16 -15.148438 16 -15.890625 C 16 -16.660156 15.769531 -17.316406 15.3125 -17.859375 C 14.851562 -18.410156 14.113281 -18.6875 13.09375 -18.6875 C 12.25 -18.6875 11.5 -18.4375 10.84375 -17.9375 C 10.195312 -17.445312 9.6875 -16.820312 9.3125 -16.0625 C 8.945312 -15.3125 8.765625 -14.550781 8.765625 -13.78125 C 8.765625 -13 8.972656 -12.328125 9.390625 -11.765625 C 9.816406 -11.203125 10.519531 -10.921875 11.5 -10.921875 Z M 11.5 -10.921875 "/></g></g></g><g fill="#ffffff" fill-opacity="1"><g transform="translate(180.916159, 193.897234)"><g><path d="M 26.34375 -14.46875 C 26.550781 -14.78125 26.882812 -14.890625 27.34375 -14.796875 C 27.800781 -14.710938 28.195312 -14.519531 28.53125 -14.21875 C 28.863281 -13.925781 28.925781 -13.566406 28.71875 -13.140625 C 28.21875 -12.085938 27.570312 -11 26.78125 -9.875 C 25.988281 -8.75 25.003906 -7.804688 23.828125 -7.046875 C 22.648438 -6.285156 21.195312 -5.90625 19.46875 -5.90625 L 18.84375 -5.90625 C 17.539062 -4.113281 15.984375 -2.679688 14.171875 -1.609375 C 12.359375 -0.535156 10.46875 0 8.5 0 C 6.144531 0 4.191406 -0.789062 2.640625 -2.375 C 1.085938 -3.957031 0.3125 -6.125 0.3125 -8.875 C 0.3125 -10.84375 0.671875 -12.851562 1.390625 -14.90625 C 2.117188 -16.96875 3.132812 -18.867188 4.4375 -20.609375 C 5.738281 -22.347656 7.269531 -23.742188 9.03125 -24.796875 C 10.789062 -25.859375 12.722656 -26.390625 14.828125 -26.390625 C 16.273438 -26.390625 17.578125 -26.097656 18.734375 -25.515625 C 19.898438 -24.941406 20.820312 -23.984375 21.5 -22.640625 C 22.1875 -21.304688 22.53125 -19.53125 22.53125 -17.3125 C 22.53125 -15.445312 22.269531 -13.632812 21.75 -11.875 L 22.109375 -11.875 C 22.890625 -11.875 23.628906 -12.078125 24.328125 -12.484375 C 25.035156 -12.890625 25.707031 -13.550781 26.34375 -14.46875 Z M 11.5 -10.921875 C 12.382812 -10.921875 13.160156 -11.1875 13.828125 -11.71875 C 14.492188 -12.25 15.019531 -12.890625 15.40625 -13.640625 C 15.800781 -14.398438 16 -15.148438 16 -15.890625 C 16 -16.660156 15.769531 -17.316406 15.3125 -17.859375 C 14.851562 -18.410156 14.113281 -18.6875 13.09375 -18.6875 C 12.25 -18.6875 11.5 -18.4375 10.84375 -17.9375 C 10.195312 -17.445312 9.6875 -16.820312 9.3125 -16.0625 C 8.945312 -15.3125 8.765625 -14.550781 8.765625 -13.78125 C 8.765625 -13 8.972656 -12.328125 9.390625 -11.765625 C 9.816406 -11.203125 10.519531 -10.921875 11.5 -10.921875 Z M 11.5 -10.921875 "/></g></g></g><g fill="#ffffff" fill-opacity="1"><g transform="translate(206.043355, 193.897234)"><g><path d="M 4.484375 0 C 2.617188 0 1.316406 -0.515625 0.578125 -1.546875 C -0.160156 -2.585938 -0.53125 -3.882812 -0.53125 -5.4375 C -0.53125 -6.769531 -0.363281 -8.226562 -0.03125 -9.8125 C 0.300781 -11.394531 0.734375 -12.945312 1.265625 -14.46875 C 3.054688 -19.601562 4.578125 -23.910156 5.828125 -27.390625 C 7.078125 -30.878906 8.28125 -33.507812 9.4375 -35.28125 C 10.601562 -37.0625 11.890625 -37.953125 13.296875 -37.953125 C 14.390625 -37.953125 15.078125 -37.535156 15.359375 -36.703125 C 15.640625 -35.878906 15.375 -34.640625 14.5625 -32.984375 C 13.125 -30.066406 11.882812 -27.367188 10.84375 -24.890625 C 9.8125 -22.410156 8.992188 -20.0625 8.390625 -17.84375 C 8.109375 -16.820312 7.90625 -15.84375 7.78125 -14.90625 C 7.65625 -13.976562 7.769531 -13.222656 8.125 -12.640625 C 8.476562 -12.054688 9.179688 -11.765625 10.234375 -11.765625 C 11.148438 -11.765625 11.953125 -12.003906 12.640625 -12.484375 C 13.328125 -12.960938 13.953125 -13.625 14.515625 -14.46875 C 14.796875 -14.882812 15.164062 -15.03125 15.625 -14.90625 C 16.082031 -14.78125 16.457031 -14.539062 16.75 -14.1875 C 17.050781 -13.84375 17.097656 -13.492188 16.890625 -13.140625 C 16.535156 -12.578125 16.113281 -11.757812 15.625 -10.6875 C 15.132812 -9.613281 14.546875 -8.46875 13.859375 -7.25 C 13.171875 -6.039062 12.367188 -4.878906 11.453125 -3.765625 C 10.535156 -2.660156 9.503906 -1.753906 8.359375 -1.046875 C 7.222656 -0.347656 5.929688 0 4.484375 0 Z M 4.484375 0 "/></g></g></g><g fill="#ffffff" fill-opacity="1"><g transform="translate(219.345983, 193.897234)"><g><path d="M 26.34375 -14.46875 C 26.550781 -14.78125 26.882812 -14.890625 27.34375 -14.796875 C 27.800781 -14.710938 28.195312 -14.519531 28.53125 -14.21875 C 28.863281 -13.925781 28.925781 -13.566406 28.71875 -13.140625 C 28.21875 -12.085938 27.570312 -11 26.78125 -9.875 C 25.988281 -8.75 25.003906 -7.804688 23.828125 -7.046875 C 22.648438 -6.285156 21.195312 -5.90625 19.46875 -5.90625 L 18.84375 -5.90625 C 17.539062 -4.113281 15.984375 -2.679688 14.171875 -1.609375 C 12.359375 -0.535156 10.46875 0 8.5 0 C 6.144531 0 4.191406 -0.789062 2.640625 -2.375 C 1.085938 -3.957031 0.3125 -6.125 0.3125 -8.875 C 0.3125 -10.84375 0.671875 -12.851562 1.390625 -14.90625 C 2.117188 -16.96875 3.132812 -18.867188 4.4375 -20.609375 C 5.738281 -22.347656 7.269531 -23.742188 9.03125 -24.796875 C 10.789062 -25.859375 12.722656 -26.390625 14.828125 -26.390625 C 16.273438 -26.390625 17.578125 -26.097656 18.734375 -25.515625 C 19.898438 -24.941406 20.820312 -23.984375 21.5 -22.640625 C 22.1875 -21.304688 22.53125 -19.53125 22.53125 -17.3125 C 22.53125 -15.445312 22.269531 -13.632812 21.75 -11.875 L 22.109375 -11.875 C 22.890625 -11.875 23.628906 -12.078125 24.328125 -12.484375 C 25.035156 -12.890625 25.707031 -13.550781 26.34375 -14.46875 Z M 11.5 -10.921875 C 12.382812 -10.921875 13.160156 -11.1875 13.828125 -11.71875 C 14.492188 -12.25 15.019531 -12.890625 15.40625 -13.640625 C 15.800781 -14.398438 16 -15.148438 16 -15.890625 C 16 -16.660156 15.769531 -17.316406 15.3125 -17.859375 C 14.851562 -18.410156 14.113281 -18.6875 13.09375 -18.6875 C 12.25 -18.6875 11.5 -18.4375 10.84375 -17.9375 C 10.195312 -17.445312 9.6875 -16.820312 9.3125 -16.0625 C 8.945312 -15.3125 8.765625 -14.550781 8.765625 -13.78125 C 8.765625 -13 8.972656 -12.328125 9.390625 -11.765625 C 9.816406 -11.203125 10.519531 -10.921875 11.5 -10.921875 Z M 11.5 -10.921875 "/></g></g></g><g fill="#ffffff" fill-opacity="1"><g transform="translate(244.47318, 193.897234)"><g><path d="M 21.6875 -14.46875 C 21.96875 -14.882812 22.328125 -15.03125 22.765625 -14.90625 C 23.210938 -14.78125 23.582031 -14.539062 23.875 -14.1875 C 24.175781 -13.84375 24.238281 -13.492188 24.0625 -13.140625 C 23.78125 -12.546875 23.367188 -11.710938 22.828125 -10.640625 C 22.285156 -9.566406 21.597656 -8.421875 20.765625 -7.203125 C 19.941406 -5.992188 18.941406 -4.84375 17.765625 -3.75 C 16.585938 -2.65625 15.234375 -1.765625 13.703125 -1.078125 C 12.171875 -0.390625 10.414062 -0.046875 8.4375 -0.046875 C 6.125 -0.046875 4.285156 -0.539062 2.921875 -1.53125 C 1.566406 -2.519531 0.644531 -3.769531 0.15625 -5.28125 C -0.332031 -6.789062 -0.472656 -8.375 -0.265625 -10.03125 C -0.0546875 -11.6875 0.4375 -13.164062 1.21875 -14.46875 L 1.421875 -14.78125 C 2.367188 -16.039062 3.304688 -17.421875 4.234375 -18.921875 C 5.171875 -20.421875 6.132812 -21.828125 7.125 -23.140625 C 8.113281 -24.460938 9.132812 -25.550781 10.1875 -26.40625 C 11.238281 -27.269531 12.328125 -27.703125 13.453125 -27.703125 C 15.109375 -27.703125 16.332031 -27.316406 17.125 -26.546875 C 17.914062 -25.773438 18.296875 -24.96875 18.265625 -24.125 C 18.265625 -23.695312 18.078125 -23.34375 17.703125 -23.0625 C 17.335938 -22.78125 16.898438 -22.523438 16.390625 -22.296875 C 15.878906 -22.066406 15.429688 -21.785156 15.046875 -21.453125 C 14.660156 -21.117188 14.46875 -20.6875 14.46875 -20.15625 C 14.46875 -19.84375 14.710938 -19.210938 15.203125 -18.265625 C 15.691406 -17.316406 16.21875 -16.25 16.78125 -15.0625 C 17.34375 -13.882812 17.734375 -12.753906 17.953125 -11.671875 C 18.753906 -11.703125 19.445312 -11.976562 20.03125 -12.5 C 20.613281 -13.03125 21.164062 -13.6875 21.6875 -14.46875 Z M 6.546875 -10.921875 C 7.703125 -10.921875 8.597656 -11.289062 9.234375 -12.03125 C 9.867188 -12.769531 10.1875 -13.6875 10.1875 -14.78125 C 10.1875 -15.414062 10.085938 -16.066406 9.890625 -16.734375 C 9.703125 -17.398438 9.414062 -18.085938 9.03125 -18.796875 C 8.675781 -19.492188 8.253906 -19.492188 7.765625 -18.796875 C 7.085938 -17.804688 6.367188 -16.804688 5.609375 -15.796875 C 4.859375 -14.796875 4.1875 -13.910156 3.59375 -13.140625 C 3.59375 -12.503906 3.863281 -11.972656 4.40625 -11.546875 C 4.945312 -11.128906 5.660156 -10.921875 6.546875 -10.921875 Z M 6.546875 -10.921875 "/></g></g></g><g fill="#000000" fill-opacity="1"><g transform="translate(199.600431, 220.871093)"><g><path d="M 1.375 0 L 1.375 -12.375 L 4.390625 -12.375 L 4.390625 -2.625 L 11.140625 -2.625 L 11.140625 0 Z M 1.375 0 "/></g></g></g><g fill="#000000" fill-opacity="1"><g transform="translate(211.099062, 220.871093)"><g><path d="M 1.375 0 L 1.375 -8.84375 L 4.125 -8.84375 L 4.125 0 Z M 1.375 -9.734375 L 1.375 -12.375 L 4.125 -12.375 L 4.125 -9.734375 Z M 1.375 -9.734375 "/></g></g></g><g fill="#000000" fill-opacity="1"><g transform="translate(216.583025, 220.871093)"><g><path d="M 2.953125 0 L 1.375 -1.578125 L 1.375 -12.375 L 4.125 -12.375 L 4.125 -8.84375 L 8.421875 -8.84375 L 10 -7.265625 L 10 -1.578125 L 8.421875 0 Z M 4.125 -2.671875 L 4.4375 -2.359375 L 6.9375 -2.359375 L 7.25 -2.671875 L 7.25 -6.171875 L 6.9375 -6.515625 L 4.125 -6.515625 Z M 4.125 -2.671875 "/></g></g></g><g fill="#000000" fill-opacity="1"><g transform="translate(227.727852, 220.871093)"><g><path d="M 1.375 0 L 1.375 -7.265625 L 2.953125 -8.84375 L 8.421875 -8.84375 L 10 -7.265625 L 10 -3.984375 L 7.25 -3.984375 L 7.25 -6.171875 L 6.9375 -6.515625 L 4.4375 -6.515625 L 4.125 -6.171875 L 4.125 0 Z M 1.375 0 "/></g></g></g><g fill="#000000" fill-opacity="1"><g transform="translate(238.660396, 220.871093)"><g><path d="M 2.71875 0 L 1.15625 -1.578125 L 1.15625 -4.421875 L 1.96875 -5.21875 L 7.046875 -5.21875 L 7.046875 -6.34375 L 6.703125 -6.6875 L 4.234375 -6.6875 L 3.890625 -6.34375 L 3.890625 -5.796875 L 1.15625 -5.796875 L 1.15625 -7.265625 L 2.71875 -8.84375 L 8.203125 -8.84375 L 9.78125 -7.265625 L 9.78125 -1.578125 L 8.328125 0 Z M 3.890625 -2.5 L 4.234375 -2.171875 L 6.703125 -2.171875 L 7.046875 -2.5 L 7.046875 -3.625 L 4.125 -3.625 L 3.890625 -3.40625 Z M 3.890625 -2.5 "/></g></g></g><g fill="#000000" fill-opacity="1"><g transform="translate(249.592941, 220.871093)"><g><path d="M 1.375 0 L 1.375 -7.265625 L 2.953125 -8.84375 L 8.421875 -8.84375 L 10 -7.265625 L 10 -3.984375 L 7.25 -3.984375 L 7.25 -6.171875 L 6.9375 -6.515625 L 4.4375 -6.515625 L 4.125 -6.171875 L 4.125 0 Z M 1.375 0 "/></g></g></g><g fill="#000000" fill-opacity="1"><g transform="translate(260.525485, 220.871093)"><g><path d="M 2.953125 0 L 1.375 -1.578125 L 1.375 -8.84375 L 4.125 -8.84375 L 4.125 -2.671875 L 4.4375 -2.359375 L 6.9375 -2.359375 L 7.25 -2.671875 L 7.25 -8.84375 L 10 -8.84375 L 10 -1.578125 L 8.421875 0 L 7.046875 0 L 7.046875 3.53125 L 4.296875 3.53125 L 4.296875 0 Z M 2.953125 0 "/></g></g></g><g clip-path="url(#8b0c53fb74)"><path fill="#000000" d="M 171.996094 136.644531 C 164.992188 138.578125 163.425781 140.144531 161.496094 147.144531 C 159.5625 140.144531 157.996094 138.578125 150.996094 136.644531 C 157.996094 134.710938 159.5625 133.144531 161.496094 126.144531 C 163.425781 133.144531 164.992188 134.710938 171.996094 136.644531 Z M 171.996094 136.644531 " fill-opacity="1" fill-rule="nonzero"/></g><g clip-path="url(#bc2f2d5320)"><path fill="#000000" d="M 208.5 243.253906 C 201.5 245.183594 199.933594 246.75 198 253.753906 C 196.066406 246.75 194.5 245.183594 187.5 243.253906 C 194.5 241.320312 196.066406 239.753906 198 232.753906 C 199.933594 239.753906 201.5 241.320312 208.5 243.253906 Z M 208.5 243.253906 " fill-opacity="1" fill-rule="nonzero"/></g><g clip-path="url(#f615274f38)"><path fill="#000000" d="M 296.714844 205.546875 C 289.714844 207.476562 288.148438 209.042969 286.214844 216.046875 C 284.285156 209.042969 282.71875 207.476562 275.714844 205.546875 C 282.71875 203.613281 284.285156 202.046875 286.214844 195.046875 C 288.148438 202.046875 289.714844 203.613281 296.714844 205.546875 Z M 296.714844 205.546875 " fill-opacity="1" fill-rule="nonzero"/></g></svg>