<svg xmlns="http://www.w3.org/2000/svg" xmlns:xlink="http://www.w3.org/1999/xlink" width="384" zoomAndPan="magnify" viewBox="0 0 288 287.999989" height="384" preserveAspectRatio="xMidYMid meet" version="1.0"><defs><clipPath id="c9f6a02d91"><path d="M 45.648438 13 L 240 13 L 240 268 L 45.648438 268 Z M 45.648438 13 " clip-rule="nonzero"/></clipPath></defs><g clip-path="url(#c9f6a02d91)"><path fill="#cd0033" d="M 45.648438 132.824219 L 45.648438 72.871094 L 239.640625 72.871094 L 239.640625 132.824219 L 168.25 132.824219 L 168.25 90.746094 L 117.023438 90.746094 L 117.023438 132.824219 C 117.023438 132.824219 45.648438 132.824219 45.648438 132.824219 Z M 168.25 139.746094 L 168.25 166.75 L 239.640625 166.75 L 239.640625 139.65625 C 239.640625 139.65625 168.25 139.746094 168.25 139.746094 Z M 45.648438 139.71875 L 45.648438 166.726562 L 117.023438 166.726562 L 117.023438 139.65625 Z M 45.648438 173.671875 L 45.648438 200.664062 L 117.023438 200.664062 L 117.023438 173.59375 Z M 168.25 173.671875 L 168.25 200.664062 L 239.640625 200.664062 L 239.640625 173.59375 C 239.640625 173.566406 168.25 173.671875 168.25 173.671875 Z M 45.648438 207.453125 L 45.648438 267.421875 L 239.640625 267.421875 L 239.640625 207.453125 L 168.25 207.453125 L 168.25 248.921875 L 117.023438 248.921875 L 117.023438 207.453125 Z M 117.023438 13.175781 L 117.023438 53.359375 L 168.25 53.359375 L 168.25 13.175781 Z M 117.023438 13.175781 " fill-opacity="1" fill-rule="nonzero"/></g></svg>