<svg xmlns="http://www.w3.org/2000/svg" xmlns:xlink="http://www.w3.org/1999/xlink" width="512" zoomAndPan="magnify" viewBox="0 0 384 383.999986" height="512" preserveAspectRatio="xMidYMid meet" version="1.0"><path fill="#cd0033" d="M 0 181.363281 L 0 163.359375 L 58.253906 163.359375 L 58.253906 181.363281 L 36.816406 181.363281 L 36.816406 168.726562 L 21.433594 168.726562 L 21.433594 181.363281 C 21.433594 181.363281 0 181.363281 0 181.363281 Z M 36.816406 183.441406 L 36.816406 191.550781 L 58.253906 191.550781 L 58.253906 183.414062 C 58.253906 183.414062 36.816406 183.441406 36.816406 183.441406 Z M 0 183.433594 L 0 191.542969 L 21.433594 191.542969 L 21.433594 183.414062 Z M 0 193.628906 L 0 201.734375 L 21.433594 201.734375 L 21.433594 193.605469 Z M 36.816406 193.628906 L 36.816406 201.734375 L 58.253906 201.734375 L 58.253906 193.605469 C 58.253906 193.597656 36.816406 193.628906 36.816406 193.628906 Z M 0 203.773438 L 0 221.78125 L 58.253906 221.78125 L 58.253906 203.773438 L 36.816406 203.773438 L 36.816406 216.226562 L 21.433594 216.226562 L 21.433594 203.773438 Z M 21.433594 145.433594 L 21.433594 157.5 L 36.816406 157.5 L 36.816406 145.433594 Z M 21.433594 145.433594 " fill-opacity="1" fill-rule="nonzero"/><path fill="#cd0033" d="M 86.699219 163.640625 L 78.253906 163.640625 L 78.253906 172.09375 L 86.699219 172.09375 Z M 78.726562 221.828125 L 86.21875 221.828125 L 86.21875 181.175781 L 78.726562 181.175781 C 78.726562 181.175781 78.726562 221.828125 78.726562 221.828125 Z M 78.726562 221.828125 " fill-opacity="1" fill-rule="evenodd"/><path fill="#cd0033" d="M 91.875 221.828125 L 99.367188 221.828125 L 99.367188 201.34375 C 99.367188 193.769531 102.398438 186.277344 110.046875 186.277344 C 116.109375 186.277344 117.300781 192.570312 117.300781 197.59375 L 117.300781 221.828125 L 124.792969 221.828125 L 124.792969 201.34375 C 124.792969 193.769531 127.824219 186.277344 135.472656 186.277344 C 141.53125 186.277344 142.726562 192.570312 142.726562 197.59375 L 142.726562 221.828125 L 150.21875 221.828125 L 150.21875 195.765625 C 150.21875 186.914062 146.476562 180.21875 136.109375 180.21875 C 132.441406 180.21875 126.308594 182.296875 123.515625 188.109375 C 121.363281 182.609375 116.664062 180.21875 111.960938 180.21875 C 105.984375 180.21875 101.917969 182.371094 99.050781 187.074219 L 98.894531 187.074219 L 98.894531 181.171875 L 91.882812 181.171875 L 91.882812 221.828125 Z M 91.875 221.828125 " fill-opacity="1" fill-rule="nonzero"/><path fill="#cd0033" d="M 186.324219 201.335938 C 186.480469 207.710938 183.136719 216.71875 175.078125 216.71875 C 166.636719 216.71875 163.125 208.351562 163.125 201.578125 C 163.125 194.003906 167.03125 186.269531 175.164062 186.269531 C 183.292969 186.277344 186.480469 194.011719 186.324219 201.335938 Z M 155.640625 238.566406 L 163.132812 238.566406 L 163.132812 216.246094 L 163.289062 216.246094 C 165.601562 219.988281 169.664062 222.789062 176.84375 222.789062 C 189.121094 222.789062 194.300781 211.941406 194.300781 200.78125 C 194.300781 189.863281 188.558594 180.21875 176.765625 180.21875 C 169.597656 180.21875 164.96875 183.886719 162.976562 186.914062 L 162.816406 186.914062 L 162.816406 181.175781 L 155.648438 181.175781 Z M 155.640625 238.566406 " fill-opacity="1" fill-rule="evenodd"/><path fill="#cd0033" d="M 197.953125 221.828125 L 205.449219 221.828125 L 205.449219 203.339844 C 205.449219 193.132812 209.835938 186.757812 216.523438 186.757812 C 217.800781 186.757812 219.316406 186.914062 220.671875 187.476562 L 220.671875 180.78125 C 219.082031 180.464844 217.964844 180.226562 215.730469 180.226562 C 211.425781 180.226562 207.121094 183.253906 205.132812 187.476562 L 204.976562 187.476562 L 204.976562 181.175781 L 197.960938 181.175781 Z M 197.953125 221.828125 " fill-opacity="1" fill-rule="nonzero"/><path fill="#cd0033" d="M 232.304688 163.640625 L 223.851562 163.640625 L 223.851562 172.09375 L 232.304688 172.09375 Z M 224.332031 221.828125 L 231.824219 221.828125 L 231.824219 181.175781 L 224.332031 181.175781 C 224.332031 181.175781 224.332031 221.828125 224.332031 221.828125 Z M 224.332031 221.828125 " fill-opacity="1" fill-rule="evenodd"/><path fill="#cd0033" d="M 274.140625 181.175781 L 266.648438 181.175781 L 255.40625 214.335938 L 255.246094 214.335938 L 244.246094 181.175781 L 236.039062 181.175781 L 250.628906 221.828125 L 259.550781 221.828125 Z M 274.140625 181.175781 " fill-opacity="1" fill-rule="nonzero"/><path fill="#cd0033" d="M 299.175781 206.039062 C 299.175781 212.101562 295.265625 216.71875 287.859375 216.71875 C 284.429688 216.71875 280.28125 214.410156 280.28125 210.105469 C 280.28125 202.933594 290.324219 202.296875 294.390625 202.296875 C 295.980469 202.296875 297.578125 202.453125 299.167969 202.453125 L 299.167969 206.039062 Z M 277.335938 190.425781 C 280.363281 187.875 284.910156 186.277344 289.132812 186.277344 C 296.625 186.277344 299.175781 189.863281 299.175781 196.882812 C 296.226562 196.726562 294.15625 196.726562 291.203125 196.726562 C 283.476562 196.726562 272.316406 199.914062 272.316406 210.113281 C 272.316406 218.960938 278.453125 222.789062 287.21875 222.789062 C 294.074219 222.789062 298.066406 219.039062 299.8125 216.570312 L 299.96875 216.570312 L 299.96875 221.828125 L 306.984375 221.828125 C 306.824219 220.636719 306.667969 218.484375 306.667969 213.855469 L 306.667969 197.039062 C 306.667969 185.953125 301.964844 180.21875 290.324219 180.21875 C 285.140625 180.21875 280.679688 181.816406 276.9375 184.042969 Z M 277.335938 190.425781 " fill-opacity="1" fill-rule="evenodd"/><path fill="#cd0033" d="M 334.558594 181.175781 L 323.796875 181.175781 L 323.796875 169.378906 L 316.304688 171.773438 L 316.304688 181.175781 L 307.140625 181.175781 L 307.140625 187.238281 L 316.304688 187.238281 L 316.304688 210.988281 C 316.304688 219.121094 321.089844 222.789062 328.816406 222.789062 C 331.207031 222.789062 333.523438 222.148438 335.199219 221.671875 L 335.199219 215.289062 C 334.078125 216.007812 332.40625 216.71875 330.097656 216.71875 C 326.671875 216.71875 323.796875 214.171875 323.796875 209.46875 L 323.796875 187.230469 L 334.558594 187.230469 C 334.558594 187.230469 334.558594 181.175781 334.558594 181.175781 Z M 334.558594 181.175781 " fill-opacity="1" fill-rule="nonzero"/><path fill="#cd0033" d="M 363.324219 206.039062 C 363.324219 212.101562 359.414062 216.71875 352.003906 216.71875 C 348.578125 216.71875 344.429688 214.410156 344.429688 210.105469 C 344.429688 202.933594 354.472656 202.296875 358.539062 202.296875 C 360.128906 202.296875 361.726562 202.453125 363.316406 202.453125 L 363.316406 206.039062 Z M 341.488281 190.425781 C 344.519531 187.875 349.066406 186.277344 353.28125 186.277344 C 360.773438 186.277344 363.324219 189.863281 363.324219 196.882812 C 360.375 196.726562 358.304688 196.726562 355.351562 196.726562 C 347.625 196.726562 336.464844 199.914062 336.464844 210.113281 C 336.464844 218.960938 342.601562 222.789062 351.367188 222.789062 C 358.222656 222.789062 362.210938 219.039062 363.960938 216.570312 L 364.117188 216.570312 L 364.117188 221.828125 L 371.128906 221.828125 C 370.972656 220.636719 370.808594 218.484375 370.808594 213.855469 L 370.808594 197.039062 C 370.808594 185.953125 366.105469 180.21875 354.472656 180.21875 C 349.289062 180.21875 344.828125 181.816406 341.085938 184.042969 Z M 377.371094 181.191406 L 378.433594 181.191406 C 379.042969 181.191406 379.734375 181.320312 379.734375 182.070312 C 379.734375 182.933594 379.117188 183.023438 378.421875 183.023438 L 377.371094 183.023438 Z M 376.175781 186.683594 L 377.371094 186.683594 L 377.371094 183.929688 L 378.089844 183.929688 L 379.746094 186.683594 L 380.96875 186.683594 L 379.253906 183.886719 C 380.300781 183.796875 380.925781 183.261719 380.925781 182.167969 C 380.925781 180.824219 380.101562 180.292969 378.5625 180.292969 L 376.183594 180.292969 Z M 378.359375 188.0625 C 375.996094 188.0625 374.085938 186.15625 374.085938 183.511719 C 374.085938 180.871094 375.996094 178.957031 378.359375 178.957031 C 380.722656 178.957031 382.628906 180.863281 382.628906 183.511719 C 382.628906 186.148438 380.714844 188.0625 378.359375 188.0625 Z M 378.359375 189.148438 C 381.472656 189.140625 384 186.621094 384 183.503906 C 384 180.390625 381.472656 177.863281 378.359375 177.855469 C 375.238281 177.855469 372.71875 180.382812 372.710938 183.503906 C 372.710938 186.621094 375.238281 189.148438 378.359375 189.148438 Z M 378.359375 189.148438 " fill-opacity="1" fill-rule="evenodd"/></svg>