<?xml version="1.0" encoding="UTF-8" standalone="no"?>
<!-- Created with Inkscape (http://www.inkscape.org/) -->

<!-- made by El David Cordero Chavarría 201019579 student ID in ITCR -->

<svg
   xmlns:dc="http://purl.org/dc/elements/1.1/"
   xmlns:cc="http://creativecommons.org/ns#"
   xmlns:rdf="http://www.w3.org/1999/02/22-rdf-syntax-ns#"
   xmlns:svg="http://www.w3.org/2000/svg"
   xmlns="http://www.w3.org/2000/svg"
   xmlns:sodipodi="http://sodipodi.sourceforge.net/DTD/sodipodi-0.dtd"
   xmlns:inkscape="http://www.inkscape.org/namespaces/inkscape"
   version="1.1"
   width="135"
   height="130"
   id="svg2"
   inkscape:version="0.48.1 r9760"
   sodipodi:docname="ITCR_LOGO.svg">
  <sodipodi:namedview
     pagecolor="#ffffff"
     bordercolor="#666666"
     borderopacity="1"
     objecttolerance="10"
     gridtolerance="10"
     guidetolerance="10"
     inkscape:pageopacity="0"
     inkscape:pageshadow="2"
     inkscape:window-width="923"
     inkscape:window-height="707"
     id="namedview3140"
     showgrid="false"
     inkscape:zoom="4.0769231"
     inkscape:cx="67.5"
     inkscape:cy="65"
     inkscape:window-x="0"
     inkscape:window-y="0"
     inkscape:window-maximized="0"
     inkscape:current-layer="svg2" />
  <defs
     id="defs4" />
  <metadata
     id="metadata7">
    <rdf:RDF>
      <cc:Work
         rdf:about="">
        <dc:format>image/svg+xml</dc:format>
        <dc:type
           rdf:resource="http://purl.org/dc/dcmitype/StillImage" />
        <dc:title />
      </cc:Work>
    </rdf:RDF>
  </metadata>
  <g
     transform="matrix(0.25,0,0,0.25,0,-133.09055)"
     id="layer1">
    <rect
       width="540"
       height="520"
       x="0"
       y="532.36218"
       id="rect2901"
       style="fill:#ffffff;fill-opacity:1;stroke:none" />
    <path
       d="m 212.35198,843.37161 1.21185,25.69121 -3.07002,0 c -0.59255,-4.52415 -1.40045,-7.75575 -2.4237,-9.6948 -1.66975,-3.12378 -3.90494,-5.41282 -6.70557,-6.86714 -2.74694,-1.50798 -6.38248,-2.26202 -10.90664,-2.26212 l -15.43088,0 0,83.69839 c -6e-5,6.73251 0.72705,10.93358 2.18133,12.60323 2.04661,2.26213 5.19742,3.39319 9.45242,3.39318 l 3.79713,0 0,2.98923 -46.45422,0 0,-2.98923 3.87791,0 c 4.63193,10e-6 7.91738,-1.40035 9.85638,-4.20108 1.18488,-1.72351 1.77734,-5.65528 1.77738,-11.79533 l 0,-83.69839 -13.16876,0 c -5.11673,1e-4 -8.75227,0.37712 -10.90665,1.13106 -2.80073,1.02344 -5.1975,2.98933 -7.1903,5.89767 -1.99283,2.90853 -3.17775,6.8403 -3.55476,11.79533 l -3.07002,0 1.29264,-25.69121 89.43448,0"
       id="path3304"
       style="font-size:165.45782471px;font-style:normal;font-variant:normal;font-weight:normal;font-stretch:normal;fill:#01457c;fill-opacity:1;stroke:none;font-family:Times New Roman;-inkscape-font-specification:'Times New Roman,'"
       inkscape:connector-curvature="0" />
    <path
       d="m 252.66617,849.35007 0,43.30342 24.0754,0 c 6.24769,6e-5 10.42184,-0.94249 12.52245,-2.82765 2.80064,-2.4775 4.36258,-6.84015 4.68581,-13.08798 l 2.98923,0 0,38.13286 -2.98923,0 c -0.75411,-5.33209 -1.50815,-8.7522 -2.26212,-10.26032 -0.96955,-1.88505 -2.55842,-3.3662 -4.7666,-4.44345 -2.20833,-1.07714 -5.6015,-1.61574 -10.17954,-1.6158 l -24.0754,0 0,36.11311 c -4e-5,4.84741 0.2154,7.80971 0.64632,8.8869 0.43084,1.02334 1.18488,1.85817 2.26211,2.50448 1.07717,0.59247 3.12384,0.8887 6.14004,0.88869 l 18.58169,0 c 6.19383,10e-6 10.69113,-0.43087 13.49192,-1.29264 2.80064,-0.86175 5.49364,-2.55833 8.079,-5.08976 3.33923,-3.3393 6.75933,-8.37521 10.26032,-15.10772 l 3.2316,0 -9.45242,27.46858 -84.42551,0 0,-2.98923 3.87792,0 c 2.58527,10e-6 5.0359,-0.61938 7.35189,-1.85817 1.7235,-0.86175 2.88149,-2.15439 3.47397,-3.87791 0.6463,-1.72351 0.96946,-5.25134 0.96948,-10.58349 l 0,-71.17595 c -2e-5,-6.94784 -0.7002,-11.2297 -2.10054,-12.8456 -1.93898,-2.15429 -5.17057,-3.23149 -9.6948,-3.2316 l -3.87792,0 0,-2.98923 84.42551,0 1.21184,23.99462 -3.1508,0 c -1.13115,-5.76293 -2.39686,-9.72163 -3.79713,-11.87612 -1.34658,-2.1543 -3.36633,-3.79703 -6.05925,-4.92819 -2.15447,-0.8078 -5.95159,-1.21175 -11.39138,-1.21185 l -30.05386,0"
       id="path3306"
       style="font-size:165.45782471px;font-style:normal;font-variant:normal;font-weight:normal;font-stretch:normal;fill:#01457c;fill-opacity:1;stroke:none;font-family:Times New Roman;-inkscape-font-specification:'Times New Roman,'"
       inkscape:connector-curvature="0" />
    <path
       d="m 418.85111,840.86713 2.50449,37.24416 -2.50449,0 c -3.33941,-11.14892 -8.10602,-19.17405 -14.29982,-24.0754 -6.19398,-4.90116 -13.62664,-7.35178 -22.29803,-7.35189 -7.27115,1.1e-4 -13.84206,1.85828 -19.71275,5.57451 -5.87077,3.66257 -10.50272,9.5333 -13.89587,17.61221 -3.33934,8.07907 -5.009,18.12394 -5.00898,30.13465 -2e-5,9.91028 1.58885,18.50093 4.76661,25.772 3.17771,7.27111 7.94431,12.84561 14.29982,16.72352 6.40929,3.87792 13.70731,5.81688 21.89408,5.81687 7.10944,10e-6 13.38412,-1.50807 18.82406,-4.52423 5.43977,-3.07001 11.41822,-9.12925 17.93537,-18.17774 l 2.50449,1.6158 c -5.49382,9.74867 -11.90315,16.8851 -19.22801,21.40933 -7.32503,4.52424 -16.02341,6.78636 -26.09516,6.78636 -18.15085,0 -32.20828,-6.73249 -42.17235,-20.19749 -7.43269,-10.01793 -11.14902,-21.81325 -11.14901,-35.386 -10e-6,-10.93351 2.45062,-20.97838 7.35188,-30.13465 4.90124,-9.1561 11.63373,-16.23868 20.19749,-21.24776 8.61755,-5.06273 18.01611,-7.59414 28.19569,-7.59425 7.91735,1.1e-4 15.72704,1.93906 23.42909,5.81687 2.26203,1.18503 3.87783,1.77749 4.8474,1.77738 1.45412,1.1e-4 2.71983,-0.51156 3.79712,-1.53501 1.40027,-1.45411 2.39668,-3.47386 2.98923,-6.05924 l 2.82765,0"
       id="path3308"
       style="font-size:165.45782471px;font-style:normal;font-variant:normal;font-weight:normal;font-stretch:normal;fill:#01457c;fill-opacity:1;stroke:none;font-family:Times New Roman;-inkscape-font-specification:'Times New Roman,'"
       inkscape:connector-curvature="0" />
    <path
       d="m 39.446437,999.57467 0.349144,7.40183 -0.884499,0 c -0.17072,-1.3034 -0.403483,-2.2345 -0.698289,-2.7931 -0.481069,-0.9 -1.125046,-1.5595 -1.931933,-1.9785 -0.791418,-0.4345 -1.83885,-0.6517 -3.1423,-0.6517 l -4.445773,0 0,24.1142 c -1.7e-5,1.9397 0.209469,3.1501 0.62846,3.6311 0.589648,0.6517 1.497423,0.9776 2.723327,0.9776 l 1.093986,0 0,0.8612 -13.383872,0 0,-0.8612 1.117262,0 c 1.334498,0 2.281066,-0.4034 2.839709,-1.2104 0.341373,-0.4965 0.512066,-1.6293 0.512078,-3.3983 l 0,-24.1142 -3.794037,0 c -1.474172,0 -2.521605,0.1086 -3.1423,0.3258 -0.806916,0.2949 -1.497446,0.8613 -2.071591,1.6992 -0.574151,0.838 -0.915537,1.9707 -1.024157,3.3983 l -0.884499,0 0.372421,-7.40183 25.766863,0"
       id="path3311"
       style="font-size:47.66986084px;font-style:normal;font-variant:normal;font-weight:normal;font-stretch:normal;fill:#01457c;fill-opacity:1;stroke:none;font-family:Times New Roman;-inkscape-font-specification:'Times New Roman,'"
       inkscape:connector-curvature="0" />
    <path
       d="m 42.821501,1017.8466 c -0.01552,3.1655 0.752594,5.6484 2.304354,7.4484 1.551744,1.8 3.375052,2.7 5.46993,2.7 1.396564,0 2.60693,-0.3801 3.631103,-1.1405 1.039657,-0.7759 1.908638,-2.0949 2.606945,-3.957 l 0.721565,0.4655 c -0.325887,2.126 -1.272456,4.0656 -2.839708,5.8191 -1.567286,1.738 -3.530252,2.607 -5.888904,2.607 -2.560401,0 -4.75613,-0.9932 -6.587193,-2.9794 -1.815554,-2.0018 -2.723328,-4.6863 -2.723327,-8.0536 -1e-6,-3.6466 0.93105,-6.4863 2.793156,-8.5191 1.877615,-2.0483 4.228519,-3.0725 7.052719,-3.0725 2.389686,0 4.352652,0.7914 5.888904,2.3742 1.536216,1.5673 2.304334,3.6699 2.304353,6.3079 l -14.733897,0 m 0,-1.3501 9.869151,0 c -0.0776,-1.3655 -0.240537,-2.3276 -0.488802,-2.8862 -0.387953,-0.869 -0.96986,-1.5518 -1.745723,-2.0483 -0.760371,-0.4966 -1.559523,-0.7449 -2.397459,-0.7449 -1.287964,0 -2.444019,0.5044 -3.468168,1.513 -1.008646,0.9931 -1.598311,2.3819 -1.768999,4.1664"
       id="path3313"
       style="font-size:47.66986084px;font-style:normal;font-variant:normal;font-weight:normal;font-stretch:normal;fill:#01457c;fill-opacity:1;stroke:none;font-family:Times New Roman;-inkscape-font-specification:'Times New Roman,'"
       inkscape:connector-curvature="0" />
    <path
       d="m 78.480794,1023.0372 c -0.574168,2.8087 -1.699188,4.9733 -3.375064,6.4941 -1.675908,1.5052 -3.530251,2.2578 -5.563035,2.2578 -2.420744,0 -4.531126,-1.0164 -6.331154,-3.0492 -1.800036,-2.0328 -2.700052,-4.7794 -2.70005,-8.2398 -2e-6,-3.3518 0.993119,-6.0751 2.979366,-8.17 2.001755,-2.0949 4.399211,-3.1423 7.192376,-3.1423 2.094853,0 3.817298,0.5586 5.167339,1.6759 1.350007,1.1017 2.025019,2.25 2.025038,3.4449 -1.9e-5,0.5896 -0.193988,1.0707 -0.581908,1.4431 -0.372438,0.3569 -0.900034,0.5354 -1.582788,0.5354 -0.91555,0 -1.60608,-0.2949 -2.071591,-0.8845 -0.263812,-0.3259 -0.442264,-0.9466 -0.535354,-1.8622 -0.0776,-0.9155 -0.387953,-1.6138 -0.931052,-2.0948 -0.543127,-0.4655 -1.295726,-0.6983 -2.257801,-0.6983 -1.551763,0 -2.800923,0.5742 -3.747485,1.7224 -1.256926,1.5208 -1.885385,3.5303 -1.88538,6.0286 -5e-6,2.5449 0.620695,4.7949 1.862104,6.7501 1.256912,1.9397 2.948321,2.9096 5.074233,2.9096 1.520705,0 2.886246,-0.5199 4.096629,-1.5595 0.853447,-0.7139 1.683634,-2.0096 2.490564,-3.8872 l 0.675013,0.3259"
       id="path3315"
       style="font-size:47.66986084px;font-style:normal;font-variant:normal;font-weight:normal;font-stretch:normal;fill:#01457c;fill-opacity:1;stroke:none;font-family:Times New Roman;-inkscape-font-specification:'Times New Roman,'"
       inkscape:connector-curvature="0" />
    <path
       d="m 87.721485,1013.7034 c 2.498312,-3.0104 4.880251,-4.5156 7.145824,-4.5156 1.163799,0 2.164678,0.2948 3.002642,0.8845 0.837928,0.5741 1.505182,1.5285 2.001762,2.863 0.341367,0.931 0.512057,2.3586 0.512077,4.2828 l 0,9.101 c -2e-5,1.3501 0.1086,2.2656 0.32587,2.7466 0.17067,0.388 0.44223,0.6906 0.81467,0.9078 0.38792,0.2173 1.09396,0.3259 2.11814,0.3259 l 0,0.8379 -10.54416,0 0,-0.8379 0.44225,0 c 0.993107,0 1.683637,-0.1474 2.07159,-0.4423 0.40344,-0.3103 0.682755,-0.7603 0.837947,-1.35 0.06205,-0.2328 0.09309,-0.9621 0.0931,-2.188 l 0,-8.7286 c -1.6e-5,-1.9397 -0.256055,-3.344 -0.768118,-4.213 -0.496576,-0.8845 -1.342281,-1.3267 -2.537116,-1.3267 -1.846598,0 -3.685424,1.0086 -5.516483,3.0259 l 0,11.2424 c -8e-6,1.4432 0.08534,2.3354 0.256039,2.6768 0.217237,0.45 0.51207,0.7836 0.884499,1.0009 0.38793,0.2017 1.163805,0.3026 2.32763,0.3026 l 0,0.8379 -10.544163,0 0,-0.8379 0.465526,0 c 1.086225,0 1.815548,-0.2716 2.187972,-0.8147 0.387935,-0.5586 0.581904,-1.6138 0.581907,-3.1656 l 0,-7.9139 c -3e-6,-2.5604 -0.06207,-4.1199 -0.18621,-4.6785 -0.108626,-0.5587 -0.287078,-0.9388 -0.535355,-1.1406 -0.232766,-0.2017 -0.550875,-0.3026 -0.954328,-0.3026 -0.434493,0 -0.95433,0.1164 -1.559512,0.3492 l -0.349145,-0.838 6.424259,-2.6069 1.000881,0 0,4.5156"
       id="path3317"
       style="font-size:47.66986084px;font-style:normal;font-variant:normal;font-weight:normal;font-stretch:normal;fill:#01457c;fill-opacity:1;stroke:none;font-family:Times New Roman;-inkscape-font-specification:'Times New Roman,'"
       inkscape:connector-curvature="0" />
    <path
       d="m 115.76943,1009.1878 c 3.22763,0 5.81905,1.2259 7.77428,3.6776 1.66035,2.0949 2.49054,4.5001 2.49056,7.2157 -2e-5,1.9087 -0.45779,3.8406 -1.3733,5.7958 -0.91555,1.9552 -2.18023,3.4294 -3.79404,4.4225 -1.59832,0.9931 -3.38283,1.4897 -5.35354,1.4897 -3.21214,0 -5.76477,-1.2802 -7.65791,-3.8406 -1.5983,-2.157 -2.39746,-4.5777 -2.39746,-7.2622 0,-1.9552 0.48105,-3.8949 1.44314,-5.8191 0.9776,-1.9397 2.25779,-3.3673 3.84058,-4.2828 1.58278,-0.9311 3.25868,-1.3966 5.02769,-1.3966 m -0.72157,1.5129 c -0.82244,10e-5 -1.65263,0.2483 -2.49056,0.7449 -0.82244,0.481 -1.48969,1.3345 -2.00177,2.5604 -0.51208,1.2259 -0.76812,2.8009 -0.76811,4.7251 -1e-5,3.1035 0.61293,5.7802 1.83882,8.0303 1.2414,2.25 2.87074,3.375 4.88803,3.375 1.50518,0 2.74658,-0.6207 3.7242,-1.8621 0.97759,-1.2414 1.46639,-3.375 1.46641,-6.4009 -2e-5,-3.7863 -0.81469,-6.7657 -2.44401,-8.9381 -1.10176,-1.4897 -2.50609,-2.2345 -4.21301,-2.2346"
       id="path3319"
       style="font-size:47.66986084px;font-style:normal;font-variant:normal;font-weight:normal;font-stretch:normal;fill:#01457c;fill-opacity:1;stroke:none;font-family:Times New Roman;-inkscape-font-specification:'Times New Roman,'"
       inkscape:connector-curvature="0" />
    <path
       d="m 136.50861,998.03843 0,28.28067 c -1e-5,1.3345 0.0931,2.219 0.27931,2.6535 0.20172,0.4345 0.50431,0.7682 0.90778,1.0009 0.40344,0.2173 1.15604,0.3259 2.2578,0.3259 l 0,0.8379 -10.45106,0 0,-0.8379 c 0.9776,0 1.64486,-0.1009 2.00176,-0.3026 0.3569,-0.2017 0.63622,-0.5354 0.83795,-1.0009 0.20172,-0.4655 0.30259,-1.3578 0.30259,-2.6768 l 0,-19.3658 c 0,-2.4052 -0.0543,-3.8794 -0.16293,-4.4225 -0.10863,-0.5586 -0.28708,-0.9388 -0.53536,-1.1406 -0.23276,-0.2017 -0.53536,-0.3025 -0.90777,-0.3026 -0.40346,1e-4 -0.91554,0.1242 -1.53624,0.3724 l -0.3957,-0.8146 6.35443,-2.60697 1.04744,0"
       id="path3321"
       style="font-size:47.66986084px;font-style:normal;font-variant:normal;font-weight:normal;font-stretch:normal;fill:#01457c;fill-opacity:1;stroke:none;font-family:Times New Roman;-inkscape-font-specification:'Times New Roman,'"
       inkscape:connector-curvature="0" />
    <path
       d="m 152.8253,1009.1878 c 3.22763,0 5.81905,1.2259 7.77428,3.6776 1.66035,2.0949 2.49054,4.5001 2.49056,7.2157 -2e-5,1.9087 -0.45779,3.8406 -1.3733,5.7958 -0.91555,1.9552 -2.18023,3.4294 -3.79404,4.4225 -1.59832,0.9931 -3.38283,1.4897 -5.35354,1.4897 -3.21214,0 -5.76477,-1.2802 -7.65791,-3.8406 -1.5983,-2.157 -2.39746,-4.5777 -2.39746,-7.2622 0,-1.9552 0.48105,-3.8949 1.44314,-5.8191 0.9776,-1.9397 2.25779,-3.3673 3.84058,-4.2828 1.58278,-0.9311 3.25868,-1.3966 5.02769,-1.3966 m -0.72157,1.5129 c -0.82244,10e-5 -1.65263,0.2483 -2.49056,0.7449 -0.82244,0.481 -1.48969,1.3345 -2.00177,2.5604 -0.51208,1.2259 -0.76812,2.8009 -0.76811,4.7251 -1e-5,3.1035 0.61293,5.7802 1.83882,8.0303 1.2414,2.25 2.87074,3.375 4.88803,3.375 1.50518,0 2.74658,-0.6207 3.7242,-1.8621 0.97759,-1.2414 1.46639,-3.375 1.46641,-6.4009 -2e-5,-3.7863 -0.81469,-6.7657 -2.44401,-8.9381 -1.10176,-1.4897 -2.50609,-2.2345 -4.21301,-2.2346 m 5.63286,-11.91743 -6.8665,8.03033 -0.7914,0 2.44401,-8.03033 5.21389,0"
       id="path3323"
       style="font-size:47.66986084px;font-style:normal;font-variant:normal;font-weight:normal;font-stretch:normal;fill:#01457c;fill-opacity:1;stroke:none;font-family:Times New Roman;-inkscape-font-specification:'Times New Roman,'"
       inkscape:connector-curvature="0" />
    <path
       d="m 171.93514,1023.363 c -1.30348,-0.6362 -2.30436,-1.5207 -3.00265,-2.6535 -0.69829,-1.1482 -1.04743,-2.4129 -1.04743,-3.794 0,-2.1104 0.79139,-3.9259 2.37418,-5.4466 1.5983,-1.5207 3.63886,-2.2811 6.12167,-2.2811 2.03278,0 3.79402,0.4966 5.28372,1.4897 l 4.5156,0 c 0.66723,0 1.05517,0.023 1.16382,0.07 0.1086,0.031 0.18618,0.093 0.23276,0.1862 0.0931,0.1397 0.13964,0.388 0.13966,0.7448 -2e-5,0.4035 -0.0388,0.6828 -0.11638,0.838 -0.0466,0.078 -0.13193,0.1397 -0.25604,0.1862 -0.10865,0.047 -0.49659,0.07 -1.16382,0.07 l -2.76988,0 c 0.86896,1.1173 1.30346,2.5449 1.30348,4.2829 -2e-5,1.9862 -0.76038,3.6854 -2.28108,5.0975 -1.52074,1.4121 -3.56129,2.1181 -6.12167,2.1181 -1.0552,0 -2.13367,-0.1551 -3.2354,-0.4655 -0.68278,0.5897 -1.14831,1.1095 -1.39658,1.5595 -0.23277,0.4345 -0.34915,0.8069 -0.34915,1.1173 0,0.2638 0.12414,0.5198 0.37242,0.7681 0.26379,0.2483 0.76811,0.4267 1.51296,0.5353 0.43449,0.062 1.52071,0.1164 3.25869,0.163 3.19659,0.078 5.26818,0.1862 6.21477,0.3258 1.44311,0.2018 2.5914,0.7371 3.44489,1.6061 0.86896,0.869 1.30345,1.9397 1.30347,3.2121 -2e-5,1.7535 -0.82245,3.3984 -2.46729,4.9346 -2.42075,2.2656 -5.57856,3.3983 -9.47345,3.3984 -2.99489,-10e-5 -5.52425,-0.6751 -7.58807,-2.0251 -1.16382,-0.7759 -1.74573,-1.5828 -1.74573,-2.4207 0,-0.3724 0.0854,-0.7449 0.25604,-1.1173 0.2638,-0.5741 0.80691,-1.3733 1.62935,-2.3974 0.10861,-0.1397 0.90001,-0.9776 2.37418,-2.5139 -0.80692,-0.481 -1.38107,-0.9078 -1.72245,-1.2802 -0.32587,-0.3879 -0.4888,-0.8224 -0.4888,-1.3035 0,-0.5431 0.21724,-1.1793 0.65174,-1.9086 0.45,-0.7293 1.47416,-1.7612 3.07247,-3.0958 m 4.05007,-13.058 c -1.1483,1e-4 -2.11039,0.4578 -2.88626,1.3733 -0.77588,0.9156 -1.16382,2.3199 -1.16381,4.2131 -1e-5,2.4517 0.52759,4.3526 1.58279,5.7026 0.8069,1.0242 1.83105,1.5363 3.07247,1.5363 1.17932,0 2.14916,-0.4423 2.90953,-1.3268 0.76035,-0.8845 1.14053,-2.2733 1.14054,-4.1664 -1e-5,-2.4673 -0.53537,-4.3992 -1.60606,-5.7958 -0.79141,-1.0242 -1.80781,-1.5362 -3.0492,-1.5363 m -4.28284,20.8323 c -0.72933,0.7914 -1.2802,1.5285 -1.65261,2.2113 -0.37243,0.6827 -0.55864,1.3112 -0.55863,1.8854 -1e-5,0.7448 0.45,1.3965 1.35002,1.9552 1.55175,0.962 3.79403,1.4431 6.72685,1.4431 2.79314,0 4.84921,-0.4966 6.16822,-1.4897 1.33449,-0.9776 2.00174,-2.025 2.00176,-3.1423 -2e-5,-0.8069 -0.39572,-1.381 -1.18709,-1.7224 -0.80693,-0.3414 -2.40523,-0.5431 -4.79492,-0.6052 -3.49145,-0.093 -6.17598,-0.2716 -8.0536,-0.5354"
       id="path3325"
       style="font-size:47.66986084px;font-style:normal;font-variant:normal;font-weight:normal;font-stretch:normal;fill:#01457c;fill-opacity:1;stroke:none;font-family:Times New Roman;-inkscape-font-specification:'Times New Roman,'"
       inkscape:connector-curvature="0" />
    <path
       d="m 195.49075,998.03843 c 0.65173,3e-5 1.2026,0.2328 1.65262,0.69829 0.46552,0.45004 0.69828,1.00091 0.69829,1.65258 -1e-5,0.6518 -0.23277,1.2104 -0.69829,1.6759 -0.45002,0.4656 -1.00089,0.6983 -1.65262,0.6983 -0.65174,0 -1.21037,-0.2327 -1.67589,-0.6983 -0.46553,-0.4655 -0.6983,-1.0241 -0.69829,-1.6759 -1e-5,-0.65167 0.225,-1.20254 0.67501,-1.65258 0.46552,-0.46549 1.03191,-0.69826 1.69917,-0.69829 m 1.93193,11.14937 0,17.1313 c 0,1.3345 0.0931,2.2268 0.27932,2.6768 0.20172,0.4345 0.48879,0.7604 0.86122,0.9776 0.38793,0.2173 1.08622,0.3259 2.09487,0.3259 l 0,0.8379 -10.35795,0 0,-0.8379 c 1.03967,0 1.73796,-0.1009 2.09486,-0.3026 0.3569,-0.2017 0.63622,-0.5354 0.83795,-1.0009 0.21724,-0.4655 0.32586,-1.3578 0.32587,-2.6768 l 0,-8.2165 c -1e-5,-2.3121 -0.0698,-3.8095 -0.20949,-4.4923 -0.10862,-0.4966 -0.27932,-0.838 -0.51208,-1.0242 -0.23276,-0.2017 -0.55087,-0.3026 -0.95432,-0.3026 -0.4345,0 -0.96209,0.1164 -1.58279,0.3492 l -0.32587,-0.838 6.42426,-2.6069 1.02415,0"
       id="path3327"
       style="font-size:47.66986084px;font-style:normal;font-variant:normal;font-weight:normal;font-stretch:normal;fill:#01457c;fill-opacity:1;stroke:none;font-family:Times New Roman;-inkscape-font-specification:'Times New Roman,'"
       inkscape:connector-curvature="0" />
    <path
       d="m 221.39727,1023.0372 c -0.57417,2.8087 -1.69919,4.9733 -3.37507,6.4941 -1.6759,1.5052 -3.53025,2.2578 -5.56303,2.2578 -2.42075,0 -4.53113,-1.0164 -6.33116,-3.0492 -1.80003,-2.0328 -2.70005,-4.7794 -2.70005,-8.2398 0,-3.3518 0.99312,-6.0751 2.97937,-8.17 2.00176,-2.0949 4.39921,-3.1423 7.19238,-3.1423 2.09485,0 3.81729,0.5586 5.16734,1.6759 1.35,1.1017 2.02501,2.25 2.02503,3.4449 -2e-5,0.5896 -0.19398,1.0707 -0.5819,1.4431 -0.37244,0.3569 -0.90004,0.5354 -1.58279,0.5354 -0.91555,0 -1.60608,-0.2949 -2.07159,-0.8845 -0.26382,-0.3259 -0.44227,-0.9466 -0.53536,-1.8622 -0.0776,-0.9155 -0.38795,-1.6138 -0.93105,-2.0948 -0.54313,-0.4655 -1.29573,-0.6983 -2.2578,-0.6983 -1.55176,0 -2.80092,0.5742 -3.74749,1.7224 -1.25692,1.5208 -1.88538,3.5303 -1.88538,6.0286 0,2.5449 0.6207,4.7949 1.86211,6.7501 1.25691,1.9397 2.94832,2.9096 5.07423,2.9096 1.52071,0 2.88625,-0.5199 4.09663,-1.5595 0.85345,-0.7139 1.68363,-2.0096 2.49056,-3.8872 l 0.67502,0.3259"
       id="path3329"
       style="font-size:47.66986084px;font-style:normal;font-variant:normal;font-weight:normal;font-stretch:normal;fill:#01457c;fill-opacity:1;stroke:none;font-family:Times New Roman;-inkscape-font-specification:'Times New Roman,'"
       inkscape:connector-curvature="0" />
    <path
       d="m 234.85098,1009.1878 c 3.22763,0 5.81905,1.2259 7.77428,3.6776 1.66035,2.0949 2.49054,4.5001 2.49056,7.2157 -2e-5,1.9087 -0.45778,3.8406 -1.3733,5.7958 -0.91555,1.9552 -2.18023,3.4294 -3.79403,4.4225 -1.59833,0.9931 -3.38284,1.4897 -5.35355,1.4897 -3.21214,0 -5.76477,-1.2802 -7.65791,-3.8406 -1.5983,-2.157 -2.39746,-4.5777 -2.39745,-7.2622 -1e-5,-1.9552 0.48104,-3.8949 1.44313,-5.8191 0.9776,-1.9397 2.25779,-3.3673 3.84059,-4.2828 1.58278,-0.9311 3.25867,-1.3966 5.02768,-1.3966 m -0.72157,1.5129 c -0.82244,10e-5 -1.65263,0.2483 -2.49056,0.7449 -0.82244,0.481 -1.48969,1.3345 -2.00177,2.5604 -0.51208,1.2259 -0.76812,2.8009 -0.76811,4.7251 -1e-5,3.1035 0.61293,5.7802 1.83882,8.0303 1.2414,2.25 2.87074,3.375 4.88803,3.375 1.50518,0 2.74659,-0.6207 3.72421,-1.8621 0.97758,-1.2414 1.46638,-3.375 1.4664,-6.4009 -2e-5,-3.7863 -0.81469,-6.7657 -2.44401,-8.9381 -1.10176,-1.4897 -2.50609,-2.2345 -4.21301,-2.2346"
       id="path3331"
       style="font-size:47.66986084px;font-style:normal;font-variant:normal;font-weight:normal;font-stretch:normal;fill:#01457c;fill-opacity:1;stroke:none;font-family:Times New Roman;-inkscape-font-specification:'Times New Roman,'"
       inkscape:connector-curvature="0" />
    <path
       d="m 275.23536,1028.7399 c -1.0397,1.0862 -2.05609,1.8698 -3.0492,2.3509 -0.99313,0.4655 -2.06384,0.6983 -3.21213,0.6983 -2.32764,0 -4.36043,-0.9699 -6.09839,-2.9096 -1.73797,-1.9552 -2.60695,-4.4613 -2.60695,-7.5182 0,-3.057 0.96209,-5.8501 2.88627,-8.3795 1.92416,-2.5448 4.39921,-3.8173 7.42514,-3.8173 1.8776,0 3.42935,0.5974 4.65526,1.7923 l 0,-3.9337 c -2e-5,-2.4362 -0.0621,-3.9337 -0.18622,-4.4923 -0.10863,-0.5586 -0.28709,-0.9388 -0.53535,-1.1406 -0.2483,-0.2017 -0.55865,-0.3025 -0.93105,-0.3026 -0.40347,1e-4 -0.93883,0.1242 -1.60607,0.3724 l -0.30259,-0.8146 6.35443,-2.60697 1.04743,0 0,24.64957 c -2e-5,2.4984 0.0543,4.0268 0.16294,4.5855 0.12412,0.5431 0.31033,0.9233 0.55863,1.1405 0.26378,0.2173 0.56637,0.3259 0.90778,0.3259 0.41895,0 0.97758,-0.1319 1.67589,-0.3957 l 0.25604,0.8146 -6.33116,2.6303 -1.0707,0 0,-3.0492 m 0,-1.6294 0,-10.9864 c -0.0931,-1.0552 -0.37244,-2.0172 -0.83795,-2.8862 -0.46554,-0.869 -1.08624,-1.5207 -1.86211,-1.9553 -0.76037,-0.4499 -1.50521,-0.6749 -2.23452,-0.675 -1.36555,10e-5 -2.58368,0.613 -3.65438,1.8389 -1.4121,1.6138 -2.11815,3.9725 -2.11814,7.076 -10e-6,3.1345 0.68276,5.5397 2.04831,7.2156 1.36554,1.6604 2.88625,2.4906 4.56216,2.4906 1.41208,0 2.77762,-0.7061 4.09663,-2.1182"
       id="path3333"
       style="font-size:47.66986084px;font-style:normal;font-variant:normal;font-weight:normal;font-stretch:normal;fill:#01457c;fill-opacity:1;stroke:none;font-family:Times New Roman;-inkscape-font-specification:'Times New Roman,'"
       inkscape:connector-curvature="0" />
    <path
       d="m 287.59505,1017.8466 c -0.0155,3.1655 0.7526,5.6484 2.30436,7.4484 1.55174,1.8 3.37505,2.7 5.46993,2.7 1.39656,0 2.60693,-0.3801 3.6311,-1.1405 1.03966,-0.7759 1.90864,-2.0949 2.60695,-3.957 l 0.72156,0.4655 c -0.32589,2.126 -1.27245,4.0656 -2.83971,5.8191 -1.56728,1.738 -3.53025,2.607 -5.8889,2.607 -2.5604,0 -4.75613,-0.9932 -6.58719,-2.9794 -1.81556,-2.0018 -2.72333,-4.6863 -2.72333,-8.0536 0,-3.6466 0.93105,-6.4863 2.79316,-8.5191 1.87761,-2.0483 4.22852,-3.0725 7.05271,-3.0725 2.38969,0 4.35266,0.7914 5.88891,2.3742 1.53622,1.5673 2.30433,3.6699 2.30435,6.3079 l -14.7339,0 m 0,-1.3501 9.86916,0 c -0.0776,-1.3655 -0.24054,-2.3276 -0.48881,-2.8862 -0.38795,-0.869 -0.96986,-1.5518 -1.74572,-2.0483 -0.76037,-0.4966 -1.55952,-0.7449 -2.39746,-0.7449 -1.28796,0 -2.44402,0.5044 -3.46817,1.513 -1.00864,0.9931 -1.59831,2.3819 -1.769,4.1664"
       id="path3335"
       style="font-size:47.66986084px;font-style:normal;font-variant:normal;font-weight:normal;font-stretch:normal;fill:#01457c;fill-opacity:1;stroke:none;font-family:Times New Roman;-inkscape-font-specification:'Times New Roman,'"
       inkscape:connector-curvature="0" />
    <path
       d="m 344.27287,998.8531 0.72156,10.7304 -0.72156,0 c -0.96212,-3.2121 -2.33542,-5.5242 -4.11991,-6.9364 -1.78454,-1.412 -3.92595,-2.1181 -6.42426,-2.1181 -2.09488,0 -3.98802,0.5354 -5.67941,1.6061 -1.69143,1.0552 -3.02593,2.7466 -4.00353,5.0742 -0.96209,2.3276 -1.44313,5.2217 -1.44313,8.6821 0,2.8552 0.45776,5.3302 1.3733,7.4251 0.91553,2.0949 2.28883,3.7009 4.11991,4.8182 1.84657,1.1173 3.94919,1.6759 6.30788,1.6759 2.04829,0 3.85608,-0.4345 5.42337,-1.3035 1.56725,-0.8845 3.28969,-2.6302 5.16734,-5.2372 l 0.72157,0.4656 c -1.58282,2.8086 -3.4294,4.8647 -5.53976,6.1682 -2.11041,1.3035 -4.61649,1.9552 -7.51825,1.9552 -5.22942,0 -9.27949,-1.9397 -12.15022,-5.8191 -2.14143,-2.8862 -3.21214,-6.2846 -3.21213,-10.195 -10e-6,-3.15 0.70604,-6.0441 2.11814,-8.6821 1.41209,-2.6379 3.35178,-4.6785 5.81907,-6.1216 2.4828,-1.45864 5.1906,-2.18797 8.12343,-2.188 2.28106,3e-5 4.5311,0.55866 6.75013,1.6759 0.65171,0.3414 1.11724,0.5121 1.39658,0.5121 0.41894,0 0.78361,-0.1474 1.09398,-0.4423 0.40343,-0.4189 0.69051,-1.00082 0.86123,-1.7457 l 0.81467,0"
       id="path3337"
       style="font-size:47.66986084px;font-style:normal;font-variant:normal;font-weight:normal;font-stretch:normal;fill:#01457c;fill-opacity:1;stroke:none;font-family:Times New Roman;-inkscape-font-specification:'Times New Roman,'"
       inkscape:connector-curvature="0" />
    <path
       d="m 359.33263,1009.1878 c 3.22764,0 5.81906,1.2259 7.77429,3.6776 1.66035,2.0949 2.49054,4.5001 2.49056,7.2157 -2e-5,1.9087 -0.45779,3.8406 -1.3733,5.7958 -0.91555,1.9552 -2.18023,3.4294 -3.79404,4.4225 -1.59832,0.9931 -3.38283,1.4897 -5.35354,1.4897 -3.21214,0 -5.76477,-1.2802 -7.65791,-3.8406 -1.59831,-2.157 -2.39746,-4.5777 -2.39746,-7.2622 0,-1.9552 0.48105,-3.8949 1.44313,-5.8191 0.97761,-1.9397 2.2578,-3.3673 3.84059,-4.2828 1.58278,-0.9311 3.25868,-1.3966 5.02768,-1.3966 m -0.72156,1.5129 c -0.82244,10e-5 -1.65263,0.2483 -2.49056,0.7449 -0.82244,0.481 -1.48969,1.3345 -2.00177,2.5604 -0.51208,1.2259 -0.76812,2.8009 -0.76811,4.7251 -1e-5,3.1035 0.61293,5.7802 1.83882,8.0303 1.2414,2.25 2.87074,3.375 4.88803,3.375 1.50518,0 2.74658,-0.6207 3.7242,-1.8621 0.97759,-1.2414 1.46639,-3.375 1.46641,-6.4009 -2e-5,-3.7863 -0.81469,-6.7657 -2.44401,-8.9381 -1.10176,-1.4897 -2.50609,-2.2345 -4.21301,-2.2346"
       id="path3339"
       style="font-size:47.66986084px;font-style:normal;font-variant:normal;font-weight:normal;font-stretch:normal;fill:#01457c;fill-opacity:1;stroke:none;font-family:Times New Roman;-inkscape-font-specification:'Times New Roman,'"
       inkscape:connector-curvature="0" />
    <path
       d="m 386.51932,1009.1878 0,7.2622 -0.76812,0 c -0.58968,-2.2811 -1.35003,-3.8328 -2.28107,-4.6553 -0.91555,-0.8224 -2.08712,-1.2336 -3.51472,-1.2336 -1.08624,0 -1.96298,0.2871 -2.63023,0.8612 -0.66726,0.5742 -1.00088,1.2104 -1.00088,1.9087 0,0.869 0.24828,1.6138 0.74484,2.2345 0.48104,0.6362 1.45865,1.3112 2.93282,2.025 l 3.39834,1.6526 c 3.15004,1.5363 4.72507,3.5613 4.72509,6.0752 -2e-5,1.9396 -0.7371,3.5069 -2.21125,4.7018 -1.45866,1.1793 -3.09576,1.769 -4.9113,1.769 -1.30348,0 -2.79316,-0.2328 -4.46905,-0.6983 -0.51208,-0.1552 -0.93106,-0.2328 -1.25692,-0.2328 -0.35691,0 -0.63622,0.2017 -0.83795,0.6052 l -0.76812,0 0,-7.6114 0.76812,0 c 0.43449,2.1725 1.26468,3.8096 2.49057,4.9113 1.22587,1.1018 2.59918,1.6527 4.1199,1.6527 1.0707,0 1.93968,-0.3104 2.60695,-0.9311 0.68276,-0.6362 1.02414,-1.3966 1.02415,-2.2811 -1e-5,-1.0707 -0.38019,-1.9707 -1.14053,-2.7 -0.74486,-0.7293 -2.2423,-1.6526 -4.49233,-2.7699 -2.25005,-1.1172 -3.72421,-2.1259 -4.4225,-3.0259 -0.69829,-0.8845 -1.04743,-2.0018 -1.04743,-3.3518 0,-1.7535 0.59742,-3.2199 1.79227,-4.3992 1.21037,-1.1793 2.76988,-1.769 4.67854,-1.769 0.83794,0 1.85434,0.1785 3.0492,0.5353 0.79138,0.2328 1.31897,0.3492 1.58278,0.3492 0.24827,0 0.44224,-0.054 0.58191,-0.163 0.13965,-0.1086 0.30258,-0.3491 0.4888,-0.7215 l 0.76812,0"
       id="path3341"
       style="font-size:47.66986084px;font-style:normal;font-variant:normal;font-weight:normal;font-stretch:normal;fill:#01457c;fill-opacity:1;stroke:none;font-family:Times New Roman;-inkscape-font-specification:'Times New Roman,'"
       inkscape:connector-curvature="0" />
    <path
       d="m 397.4592,1002.8101 0,7.0061 4.98113,0 0,1.6294 -4.98113,0 0,13.8261 c -1e-5,1.3811 0.19396,2.3121 0.58191,2.7932 0.40345,0.481 0.91553,0.7215 1.53624,0.7215 0.51206,0 1.00862,-0.1551 1.48968,-0.4655 0.48103,-0.3259 0.85345,-0.7992 1.11726,-1.4199 l 0.90778,0 c -0.54313,1.5208 -1.31125,2.6691 -2.30436,3.4449 -0.99313,0.7604 -2.01729,1.1406 -3.07247,1.1406 -0.71381,0 -1.4121,-0.194 -2.09487,-0.5819 -0.68277,-0.4035 -1.18709,-0.9699 -1.51295,-1.6992 -0.32588,-0.7448 -0.48881,-1.8854 -0.48881,-3.4216 l 0,-14.3382 -3.37506,0 0,-0.7681 c 0.85346,-0.3414 1.72244,-0.9156 2.60695,-1.7225 0.90001,-0.8224 1.69916,-1.7922 2.39745,-2.9095 0.3569,-0.5897 0.85346,-1.6681 1.48969,-3.2354 l 0.72156,0"
       id="path3343"
       style="font-size:47.66986084px;font-style:normal;font-variant:normal;font-weight:normal;font-stretch:normal;fill:#01457c;fill-opacity:1;stroke:none;font-family:Times New Roman;-inkscape-font-specification:'Times New Roman,'"
       inkscape:connector-curvature="0" />
    <path
       d="m 416.56905,1028.0649 c -2.18798,1.6914 -3.56128,2.669 -4.1199,2.9328 -0.83796,0.3879 -1.73021,0.5819 -2.67678,0.5819 -1.47417,0 -2.69229,-0.5043 -3.65437,-1.513 -0.94658,-1.0086 -1.41986,-2.3354 -1.41986,-3.9802 0,-1.0397 0.23276,-1.9397 0.69829,-2.7001 0.63622,-1.0552 1.73796,-2.0483 3.30523,-2.9793 1.58279,-0.9311 4.20525,-2.0639 7.86739,-3.3984 l 0,-0.8379 c -1e-5,-2.1259 -0.3414,-3.5846 -1.02415,-4.376 -0.66727,-0.7913 -1.64487,-1.187 -2.93282,-1.1871 -0.97761,10e-5 -1.75349,0.2639 -2.32763,0.7914 -0.58967,0.5276 -0.8845,1.1328 -0.8845,1.8156 l 0.0466,1.35 c -10e-6,0.7138 -0.18622,1.2647 -0.55864,1.6526 -0.3569,0.388 -0.83019,0.5819 -1.41985,0.5819 -0.57415,0 -1.04744,-0.2017 -1.41985,-0.6052 -0.35691,-0.4034 -0.53536,-0.9543 -0.53536,-1.6526 0,-1.3345 0.68277,-2.5603 2.04832,-3.6776 1.36553,-1.1173 3.28195,-1.6759 5.74924,-1.6759 1.89313,0 3.44488,0.3181 4.65526,0.9543 0.91552,0.4811 1.59053,1.2337 2.02504,2.2578 0.2793,0.6673 0.41896,2.0328 0.41897,4.0966 l 0,7.239 c -10e-6,2.0328 0.0388,3.2819 0.11638,3.7475 0.0776,0.45 0.20171,0.7526 0.37243,0.9077 0.18619,0.1552 0.39567,0.2328 0.62846,0.2328 0.24826,0 0.4655,-0.054 0.65173,-0.1629 0.32585,-0.2018 0.95431,-0.7682 1.88538,-1.6992 l 0,1.3035 c -1.73798,2.3276 -3.39836,3.4914 -4.98113,3.4914 -0.76037,0 -1.36555,-0.2638 -1.81555,-0.7914 -0.45002,-0.5276 -0.68278,-1.4276 -0.69829,-2.7 m 0,-1.513 0,-8.1234 c -2.34316,0.931 -3.85611,1.5905 -4.53887,1.9785 -1.2259,0.6827 -2.10264,1.3965 -2.63023,2.1414 -0.5276,0.7448 -0.7914,1.5595 -0.79139,2.444 -1e-5,1.1173 0.33362,2.0483 1.00088,2.7931 0.66725,0.7294 1.43536,1.094 2.30435,1.094 1.17933,0 2.73108,-0.7758 4.65526,-2.3276"
       id="path3345"
       style="font-size:47.66986084px;font-style:normal;font-variant:normal;font-weight:normal;font-stretch:normal;fill:#01457c;fill-opacity:1;stroke:none;font-family:Times New Roman;-inkscape-font-specification:'Times New Roman,'"
       inkscape:connector-curvature="0" />
    <path
       d="m 468.26571,1031.1373 -8.42602,0 -10.68382,-14.7571 c -0.79141,0.031 -1.43539,0.047 -1.93194,0.047 -0.20174,0 -0.41898,0 -0.65173,0 -0.23278,-0.015 -0.4733,-0.031 -0.72157,-0.047 l 0,9.1708 c -1e-5,1.9863 0.21724,3.2199 0.65174,3.7009 0.58965,0.6828 1.47415,1.0242 2.6535,1.0242 l 1.23364,0 0,0.8612 -13.52353,0 0,-0.8612 1.18709,0 c 1.3345,0 2.28883,-0.4345 2.86299,-1.3035 0.32586,-0.481 0.48879,-1.6215 0.4888,-3.4216 l 0,-20.39 c -10e-6,-1.9862 -0.21725,-3.2199 -0.65174,-3.701 -0.60519,-0.6827 -1.5052,-1.0241 -2.70005,-1.0241 l -1.18709,0 0,-0.86123 11.49849,0 c 3.35177,3e-5 5.81906,0.24831 7.40186,0.74483 1.59829,0.4811 2.94831,1.3811 4.05008,2.7001 1.11724,1.3035 1.67587,2.863 1.67589,4.6785 -2e-5,1.9397 -0.63624,3.6234 -1.90865,5.051 -1.25695,1.4276 -3.21215,2.4362 -5.86563,3.0259 l 6.51736,9.0545 c 1.48966,2.0793 2.76986,3.4604 3.84059,4.1431 1.07068,0.6828 2.46726,1.1173 4.18974,1.3035 l 0,0.8612 m -22.41508,-16.2236 c 0.29482,1e-4 0.55086,0.01 0.76812,0.023 0.21723,0 0.39568,0 0.53535,0 3.01039,0 5.27595,-0.6517 6.79668,-1.9552 1.53622,-1.3034 2.30434,-2.9638 2.30436,-4.9811 -2e-5,-1.9707 -0.62072,-3.569 -1.86211,-4.7949 -1.2259,-1.2414 -2.85524,-1.8621 -4.88802,-1.8621 -0.90003,0 -2.11815,0.1474 -3.65438,0.4422 l 0,13.1278"
       id="path3347"
       style="font-size:47.66986084px;font-style:normal;font-variant:normal;font-weight:normal;font-stretch:normal;fill:#01457c;fill-opacity:1;stroke:none;font-family:Times New Roman;-inkscape-font-specification:'Times New Roman,'"
       inkscape:connector-curvature="0" />
    <path
       d="m 474.80635,998.03843 c 0.65173,3e-5 1.2026,0.2328 1.65262,0.69829 0.46551,0.45004 0.69828,1.00091 0.69829,1.65258 -1e-5,0.6518 -0.23278,1.2104 -0.69829,1.6759 -0.45002,0.4656 -1.00089,0.6983 -1.65262,0.6983 -0.65174,0 -1.21037,-0.2327 -1.67589,-0.6983 -0.46553,-0.4655 -0.6983,-1.0241 -0.69829,-1.6759 -10e-6,-0.65167 0.225,-1.20254 0.67501,-1.65258 0.46552,-0.46549 1.03191,-0.69826 1.69917,-0.69829 m 1.93193,11.14937 0,17.1313 c -10e-6,1.3345 0.0931,2.2268 0.27932,2.6768 0.20172,0.4345 0.48879,0.7604 0.86122,0.9776 0.38793,0.2173 1.08622,0.3259 2.09487,0.3259 l 0,0.8379 -10.35796,0 0,-0.8379 c 1.03968,0 1.73796,-0.1009 2.09487,-0.3026 0.3569,-0.2017 0.63622,-0.5354 0.83795,-1.0009 0.21724,-0.4655 0.32586,-1.3578 0.32587,-2.6768 l 0,-8.2165 c -10e-6,-2.3121 -0.0698,-3.8095 -0.20949,-4.4923 -0.10863,-0.4966 -0.27932,-0.838 -0.51208,-1.0242 -0.23277,-0.2017 -0.55087,-0.3026 -0.95433,-0.3026 -0.43449,0 -0.96209,0.1164 -1.58279,0.3492 l -0.32586,-0.838 6.42426,-2.6069 1.02415,0"
       id="path3349"
       style="font-size:47.66986084px;font-style:normal;font-variant:normal;font-weight:normal;font-stretch:normal;fill:#01457c;fill-opacity:1;stroke:none;font-family:Times New Roman;-inkscape-font-specification:'Times New Roman,'"
       inkscape:connector-curvature="0" />
    <path
       d="m 500.71285,1023.0372 c -0.57417,2.8087 -1.69919,4.9733 -3.37506,6.4941 -1.67591,1.5052 -3.53026,2.2578 -5.56304,2.2578 -2.42074,0 -4.53113,-1.0164 -6.33115,-3.0492 -1.80004,-2.0328 -2.70006,-4.7794 -2.70005,-8.2398 -1e-5,-3.3518 0.99312,-6.0751 2.97936,-8.17 2.00176,-2.0949 4.39921,-3.1423 7.19238,-3.1423 2.09485,0 3.8173,0.5586 5.16734,1.6759 1.35,1.1017 2.02502,2.25 2.02504,3.4449 -2e-5,0.5896 -0.19399,1.0707 -0.58191,1.4431 -0.37244,0.3569 -0.90004,0.5354 -1.58279,0.5354 -0.91555,0 -1.60608,-0.2949 -2.07159,-0.8845 -0.26381,-0.3259 -0.44226,-0.9466 -0.53536,-1.8622 -0.0776,-0.9155 -0.38795,-1.6138 -0.93105,-2.0948 -0.54312,-0.4655 -1.29572,-0.6983 -2.2578,-0.6983 -1.55176,0 -2.80092,0.5742 -3.74748,1.7224 -1.25693,1.5208 -1.88539,3.5303 -1.88538,6.0286 -1e-5,2.5449 0.62069,4.7949 1.8621,6.7501 1.25691,1.9397 2.94832,2.9096 5.07423,2.9096 1.52071,0 2.88625,-0.5199 4.09663,-1.5595 0.85345,-0.7139 1.68364,-2.0096 2.49057,-3.8872 l 0.67501,0.3259"
       id="path3351"
       style="font-size:47.66986084px;font-style:normal;font-variant:normal;font-weight:normal;font-stretch:normal;fill:#01457c;fill-opacity:1;stroke:none;font-family:Times New Roman;-inkscape-font-specification:'Times New Roman,'"
       inkscape:connector-curvature="0" />
    <path
       d="m 515.81918,1028.0649 c -2.18799,1.6914 -3.56129,2.669 -4.11991,2.9328 -0.83795,0.3879 -1.73021,0.5819 -2.67677,0.5819 -1.47417,0 -2.6923,-0.5043 -3.65438,-1.513 -0.94657,-1.0086 -1.41986,-2.3354 -1.41986,-3.9802 0,-1.0397 0.23276,-1.9397 0.69829,-2.7001 0.63622,-1.0552 1.73796,-2.0483 3.30524,-2.9793 1.58278,-0.9311 4.20524,-2.0639 7.86739,-3.3984 l 0,-0.8379 c -2e-5,-2.1259 -0.3414,-3.5846 -1.02416,-4.376 -0.66727,-0.7913 -1.64487,-1.187 -2.93282,-1.1871 -0.97761,10e-5 -1.75348,0.2639 -2.32763,0.7914 -0.58967,0.5276 -0.8845,1.1328 -0.88449,1.8156 l 0.0466,1.35 c -1e-5,0.7138 -0.18622,1.2647 -0.55863,1.6526 -0.35691,0.388 -0.8302,0.5819 -1.41986,0.5819 -0.57415,0 -1.04743,-0.2017 -1.41985,-0.6052 -0.35691,-0.4034 -0.53536,-0.9543 -0.53536,-1.6526 0,-1.3345 0.68277,-2.5603 2.04832,-3.6776 1.36553,-1.1173 3.28195,-1.6759 5.74924,-1.6759 1.89313,0 3.44488,0.3181 4.65526,0.9543 0.91552,0.4811 1.59053,1.2337 2.02504,2.2578 0.2793,0.6673 0.41896,2.0328 0.41897,4.0966 l 0,7.239 c -10e-6,2.0328 0.0388,3.2819 0.11639,3.7475 0.0776,0.45 0.20171,0.7526 0.37242,0.9077 0.18619,0.1552 0.39568,0.2328 0.62846,0.2328 0.24826,0 0.4655,-0.054 0.65173,-0.1629 0.32585,-0.2018 0.95431,-0.7682 1.88538,-1.6992 l 0,1.3035 c -1.73798,2.3276 -3.39835,3.4914 -4.98112,3.4914 -0.76038,0 -1.36556,-0.2638 -1.81556,-0.7914 -0.45002,-0.5276 -0.68278,-1.4276 -0.69828,-2.7 m 0,-1.513 0,-8.1234 c -2.34316,0.931 -3.85612,1.5905 -4.53888,1.9785 -1.2259,0.6827 -2.10264,1.3965 -2.63022,2.1414 -0.52761,0.7448 -0.7914,1.5595 -0.7914,2.444 0,1.1173 0.33362,2.0483 1.00088,2.7931 0.66725,0.7294 1.43537,1.094 2.30436,1.094 1.17932,0 2.73107,-0.7758 4.65526,-2.3276"
       id="path3353"
       style="font-size:47.66986084px;font-style:normal;font-variant:normal;font-weight:normal;font-stretch:normal;fill:#01457c;fill-opacity:1;stroke:none;font-family:Times New Roman;-inkscape-font-specification:'Times New Roman,'"
       inkscape:connector-curvature="0" />
    <path
       d="m 316.02241,724.18215 -20.60696,20.60694 -25.18626,-25.18626 45.79322,4.57932 z"
       id="path2821"
       style="fill:#01457c;fill-opacity:1;stroke:none"
       inkscape:connector-curvature="0" />
    <path
       d="m 286.25682,703.5752 -16.02763,16.02763 -25.18627,-25.18627 41.2139,9.15864 z"
       id="path3595"
       style="fill:#01457c;fill-opacity:1;stroke:none"
       inkscape:connector-curvature="0" />
    <path
       d="m 225.19919,663.88774 -5.34255,5.34254 -25.18627,-25.18627 30.52882,19.84373 z"
       id="path3597"
       style="fill:#01457c;fill-opacity:1;stroke:none"
       inkscape:connector-curvature="0" />
    <path
       d="m 255.728,683.73147 -10.68508,10.68509 -25.18628,-25.18628 35.87136,14.50119 z"
       id="path3599"
       style="fill:#01457c;fill-opacity:1;stroke:none"
       inkscape:connector-curvature="0" />
    <path
       d="m 196.19681,642.51757 -1.52644,1.52644 -25.18627,-25.18627 26.71271,23.65983 z"
       id="path3601"
       style="fill:#01457c;fill-opacity:1;stroke:none"
       inkscape:connector-curvature="0" />
    <path
       d="m 345.78799,744.78909 -25.18627,25.18627 -25.18627,-25.18627 50.37254,0 z"
       id="path3603"
       style="fill:#01457c;fill-opacity:1;stroke:none"
       inkscape:connector-curvature="0" />
    <path
       d="m 366.39494,673.8096 -20.60695,20.60695 -25.18627,-25.18627 45.79322,4.57932 z"
       id="path3615"
       style="fill:#01457c;fill-opacity:1;stroke:none"
       inkscape:connector-curvature="0" />
    <path
       d="m 336.62935,653.20266 -16.02763,16.02762 -25.18627,-25.18627 41.2139,9.15865 z"
       id="path3617"
       style="fill:#01457c;fill-opacity:1;stroke:none"
       inkscape:connector-curvature="0" />
    <path
       d="m 275.57172,613.5152 -5.34254,5.34254 -25.18627,-25.18628 30.52881,19.84374 z"
       id="path3619"
       style="fill:#01457c;fill-opacity:1;stroke:none"
       inkscape:connector-curvature="0" />
    <path
       d="m 306.10054,633.35893 -10.68509,10.68508 -25.18627,-25.18627 35.87136,14.50119 z"
       id="path3621"
       style="fill:#01457c;fill-opacity:1;stroke:none"
       inkscape:connector-curvature="0" />
    <path
       d="m 246.56934,592.14503 -1.52643,1.52643 -25.18628,-25.18627 26.71271,23.65984 z"
       id="path3623"
       style="fill:#01457c;fill-opacity:1;stroke:none"
       inkscape:connector-curvature="0" />
    <path
       d="m 396.16052,694.41655 -25.18626,25.18627 -25.18627,-25.18627 50.37253,0 z"
       id="path3625"
       style="fill:#01457c;fill-opacity:1;stroke:none"
       inkscape:connector-curvature="0" />
    <path
       d="m 290.83613,749.36842 -20.60695,20.60694 -25.18626,-25.18626 45.79321,4.57932 z"
       id="path3629"
       style="fill:#01457c;fill-opacity:1;stroke:none"
       inkscape:connector-curvature="0" />
    <path
       d="m 261.07054,728.76147 -16.02762,16.02763 -25.18628,-25.18627 41.2139,9.15864 z"
       id="path3631"
       style="fill:#01457c;fill-opacity:1;stroke:none"
       inkscape:connector-curvature="0" />
    <path
       d="m 200.01291,689.07401 -5.34254,5.34255 -25.18627,-25.18628 30.52881,19.84373 z"
       id="path3633"
       style="fill:#01457c;fill-opacity:1;stroke:none"
       inkscape:connector-curvature="0" />
    <path
       d="m 230.54173,708.91774 -10.68509,10.68509 -25.18627,-25.18627 35.87136,14.50118 z"
       id="path3635"
       style="fill:#01457c;fill-opacity:1;stroke:none"
       inkscape:connector-curvature="0" />
    <path
       d="m 171.01054,667.70384 -1.52644,1.52644 -25.18628,-25.18627 26.71272,23.65983 z"
       id="path3637"
       style="fill:#01457c;fill-opacity:1;stroke:none"
       inkscape:connector-curvature="0" />
    <path
       d="m 320.60171,769.97536 -25.18626,25.18628 -25.18627,-25.18628 50.37253,0 z"
       id="path3639"
       style="fill:#01457c;fill-opacity:1;stroke:none"
       inkscape:connector-curvature="0" />
    <path
       d="m 341.20867,698.99587 -20.60696,20.60695 -25.18626,-25.18626 45.79322,4.57931 z"
       id="path3643"
       style="fill:#01457c;fill-opacity:1;stroke:none"
       inkscape:connector-curvature="0" />
    <path
       d="m 311.44308,678.38893 -16.02763,16.02763 -25.18627,-25.18628 41.2139,9.15865 z"
       id="path3645"
       style="fill:#01457c;fill-opacity:1;stroke:none"
       inkscape:connector-curvature="0" />
    <path
       d="m 250.38545,638.70147 -5.34254,5.34254 -25.18628,-25.18627 30.52882,19.84373 z"
       id="path3647"
       style="fill:#01457c;fill-opacity:1;stroke:none"
       inkscape:connector-curvature="0" />
    <path
       d="m 280.91426,658.5452 -10.68508,10.68508 -25.18627,-25.18627 35.87135,14.50119 z"
       id="path3649"
       style="fill:#01457c;fill-opacity:1;stroke:none"
       inkscape:connector-curvature="0" />
    <path
       d="m 221.38307,617.3313 -1.52644,1.52644 -25.18627,-25.18628 26.71271,23.65984 z"
       id="path3651"
       style="fill:#01457c;fill-opacity:1;stroke:none"
       inkscape:connector-curvature="0" />
    <path
       d="m 370.97425,719.60282 -25.18626,25.18627 -25.18628,-25.18627 50.37254,0 z"
       id="path3653"
       style="fill:#01457c;fill-opacity:1;stroke:none"
       inkscape:connector-curvature="0" />
    <path
       d="m 391.58121,648.62333 -20.60695,20.60694 -25.18626,-25.18626 45.79321,4.57932 z"
       id="path3657"
       style="fill:#01457c;fill-opacity:1;stroke:none"
       inkscape:connector-curvature="0" />
    <path
       d="m 361.81562,628.01638 -16.02762,16.02763 -25.18628,-25.18627 41.2139,9.15864 z"
       id="path3659"
       style="fill:#01457c;fill-opacity:1;stroke:none"
       inkscape:connector-curvature="0" />
    <path
       d="m 300.75799,588.32892 -5.34254,5.34254 -25.18627,-25.18627 30.52881,19.84373 z"
       id="path3661"
       style="fill:#01457c;fill-opacity:1;stroke:none"
       inkscape:connector-curvature="0" />
    <path
       d="m 331.28681,608.17265 -10.68509,10.68509 -25.18627,-25.18628 35.87136,14.50119 z"
       id="path3663"
       style="fill:#01457c;fill-opacity:1;stroke:none"
       inkscape:connector-curvature="0" />
    <path
       d="m 271.75562,566.95875 -1.52644,1.52644 -25.18627,-25.18627 26.71271,23.65983 z"
       id="path3665"
       style="fill:#01457c;fill-opacity:1;stroke:none"
       inkscape:connector-curvature="0" />
    <path
       d="m 421.34679,669.23027 -25.18626,25.18628 -25.18627,-25.18628 50.37253,0 z"
       id="path3667"
       style="fill:#01457c;fill-opacity:1;stroke:none"
       inkscape:connector-curvature="0" />
    <path
       d="m 265.64986,774.55469 -20.60695,20.60695 -25.18627,-25.18627 45.79322,4.57932 z"
       id="path3671"
       style="fill:#01457c;fill-opacity:1;stroke:none"
       inkscape:connector-curvature="0" />
    <path
       d="m 235.88427,753.94775 -16.02763,16.02762 -25.18627,-25.18627 41.2139,9.15865 z"
       id="path3673"
       style="fill:#01457c;fill-opacity:1;stroke:none"
       inkscape:connector-curvature="0" />
    <path
       d="m 174.82664,714.26029 -5.34254,5.34254 -25.18628,-25.18627 30.52882,19.84373 z"
       id="path3675"
       style="fill:#01457c;fill-opacity:1;stroke:none"
       inkscape:connector-curvature="0" />
    <path
       d="m 205.35546,734.10402 -10.68509,10.68508 -25.18627,-25.18627 35.87136,14.50119 z"
       id="path3677"
       style="fill:#01457c;fill-opacity:1;stroke:none"
       inkscape:connector-curvature="0" />
    <path
       d="m 145.82426,692.89012 -1.52644,1.52644 -25.18627,-25.18628 26.71271,23.65984 z"
       id="path3679"
       style="fill:#01457c;fill-opacity:1;stroke:none"
       inkscape:connector-curvature="0" />
    <path
       d="m 295.41544,795.16164 -25.18626,25.18627 -25.18627,-25.18627 50.37253,0 z"
       id="path3681"
       style="fill:#01457c;fill-opacity:1;stroke:none"
       inkscape:connector-curvature="0" />
    <path
       d="m 11.289336,975.73014 517.421324,0.10213"
       id="path4555"
       style="fill:none;stroke:#01457c;stroke-width:2.57868743;stroke-linecap:butt;stroke-linejoin:miter;stroke-miterlimit:4;stroke-opacity:1;stroke-dasharray:none"
       inkscape:connector-curvature="0" />
  </g>
</svg>
