<svg width="256" height="250" fill="currentColor" xmlns="http://www.w3.org/2000/svg"><defs><g/><clipPath id="a1997dc419"><path d="M 241 143 L 266 143 L 266 168 L 241 168 Z M 241 143 " clip-rule="nonzero"/></clipPath><clipPath id="ebd6f594ba"><path d="M 247.988281 139.867188 L 272.070312 147.273438 L 265.726562 167.890625 L 241.648438 160.484375 Z M 247.988281 139.867188 " clip-rule="nonzero"/></clipPath><clipPath id="23411fa611"><path d="M 260.027344 143.570312 L 265.726562 167.890625 L 241.648438 160.484375 Z M 260.027344 143.570312 " clip-rule="nonzero"/></clipPath><clipPath id="51fe33bb26"><path d="M 217 144 L 242 144 L 242 168 L 217 168 Z M 217 144 " clip-rule="nonzero"/></clipPath><clipPath id="e5130732ff"><path d="M 212.46875 146.804688 L 237.09375 141.480469 L 241.648438 162.566406 L 217.023438 167.886719 Z M 212.46875 146.804688 " clip-rule="nonzero"/></clipPath><clipPath id="50d5682459"><path d="M 224.78125 144.144531 L 241.648438 162.566406 L 217.023438 167.886719 Z M 224.78125 144.144531 " clip-rule="nonzero"/></clipPath><clipPath id="34307b682b"><path d="M 252 150 L 260 150 L 260 159 L 252 159 Z M 252 150 " clip-rule="nonzero"/></clipPath><clipPath id="eea667482d"><path d="M 254.023438 149.402344 L 261.714844 151.769531 L 259.691406 158.351562 L 252 155.988281 Z M 254.023438 149.402344 " clip-rule="nonzero"/></clipPath><clipPath id="b5639627b8"><path d="M 257.871094 150.585938 L 259.691406 158.351562 L 252 155.988281 Z M 257.871094 150.585938 " clip-rule="nonzero"/></clipPath><clipPath id="5a508dfc80"><path d="M 224 150 L 232 150 L 232 159 L 224 159 Z M 224 150 " clip-rule="nonzero"/></clipPath><clipPath id="b7c2c4f11e"><path d="M 222.273438 151.507812 L 230.039062 149.398438 L 231.84375 156.046875 L 224.078125 158.15625 Z M 222.273438 151.507812 " clip-rule="nonzero"/></clipPath><clipPath id="adebd1efbd"><path d="M 226.15625 150.453125 L 231.84375 156.046875 L 224.078125 158.15625 Z M 226.15625 150.453125 " clip-rule="nonzero"/></clipPath><clipPath id="8002ea0dba"><path d="M 169 193 L 225 193 L 225 209 L 169 209 Z M 169 193 " clip-rule="nonzero"/></clipPath><clipPath id="ffc54a188a"><path d="M 178.742188 227.652344 L 167.195312 198.347656 L 215.339844 179.371094 L 226.890625 208.679688 Z M 178.742188 227.652344 " clip-rule="nonzero"/></clipPath><clipPath id="42f17b8d8d"><path d="M 178.742188 227.652344 L 167.195312 198.347656 L 215.339844 179.371094 L 226.890625 208.679688 Z M 178.742188 227.652344 " clip-rule="nonzero"/></clipPath><clipPath id="e07b60b028"><path d="M 231.84375 160 L 234.945312 160 L 234.945312 163.105469 L 231.84375 163.105469 Z M 231.84375 160 " clip-rule="nonzero"/></clipPath><clipPath id="043ff9b275"><path d="M 233.394531 160 C 232.539062 160 231.84375 160.695312 231.84375 161.550781 C 231.84375 162.410156 232.539062 163.105469 233.394531 163.105469 C 234.253906 163.105469 234.945312 162.410156 234.945312 161.550781 C 234.945312 160.695312 234.253906 160 233.394531 160 Z M 233.394531 160 " clip-rule="nonzero"/></clipPath><clipPath id="f4e3302699"><path d="M 248.703125 159.808594 L 252 159.808594 L 252 163.105469 L 248.703125 163.105469 Z M 248.703125 159.808594 " clip-rule="nonzero"/></clipPath><clipPath id="aa0e17babe"><path d="M 250.351562 159.808594 C 249.441406 159.808594 248.703125 160.542969 248.703125 161.457031 C 248.703125 162.367188 249.441406 163.105469 250.351562 163.105469 C 251.261719 163.105469 252 162.367188 252 161.457031 C 252 160.542969 251.261719 159.808594 250.351562 159.808594 Z M 250.351562 159.808594 " clip-rule="nonzero"/></clipPath><clipPath id="0a5c4613be"><path d="M 222.273438 166 L 232 166 L 232 168 L 222.273438 168 Z M 222.273438 166 " clip-rule="nonzero"/></clipPath><clipPath id="ced3975e2d"><path d="M 251 166 L 260.523438 166 L 260.523438 168 L 251 168 Z M 251 166 " clip-rule="nonzero"/></clipPath></defs><g fill="#141e46" fill-opacity="1"><g transform="translate(109.304357, 215.810962)"><g><path d="M 50.046875 -60.109375 L 50.046875 -46.8125 L 34.015625 -46.8125 L 34.015625 0 L 17.3125 0 L 17.3125 -46.8125 L 1.453125 -46.8125 L 1.453125 -60.109375 Z M 50.046875 -60.109375 "/></g></g></g><g fill="#141e46" fill-opacity="1"><g transform="translate(208.183628, 215.810962)"><g><path d="M 2.8125 -30.015625 C 2.8125 -35.921875 4.085938 -41.191406 6.640625 -45.828125 C 9.203125 -50.460938 12.769531 -54.070312 17.34375 -56.65625 C 21.925781 -59.238281 27.113281 -60.53125 32.90625 -60.53125 C 40.019531 -60.53125 46.101562 -58.65625 51.15625 -54.90625 C 56.21875 -51.15625 59.601562 -46.039062 61.3125 -39.5625 L 45.28125 -39.5625 C 44.082031 -42.0625 42.390625 -43.960938 40.203125 -45.265625 C 38.015625 -46.578125 35.523438 -47.234375 32.734375 -47.234375 C 28.242188 -47.234375 24.609375 -45.671875 21.828125 -42.546875 C 19.046875 -39.421875 17.65625 -35.242188 17.65625 -30.015625 C 17.65625 -24.785156 19.046875 -20.609375 21.828125 -17.484375 C 24.609375 -14.359375 28.242188 -12.796875 32.734375 -12.796875 C 35.523438 -12.796875 38.015625 -13.445312 40.203125 -14.75 C 42.390625 -16.0625 44.082031 -17.96875 45.28125 -20.46875 L 61.3125 -20.46875 C 59.601562 -13.988281 56.21875 -8.882812 51.15625 -5.15625 C 46.101562 -1.4375 40.019531 0.421875 32.90625 0.421875 C 27.113281 0.421875 21.925781 -0.867188 17.34375 -3.453125 C 12.769531 -6.035156 9.203125 -9.628906 6.640625 -14.234375 C 4.085938 -18.835938 2.8125 -24.097656 2.8125 -30.015625 Z M 2.8125 -30.015625 "/></g></g></g><g clip-path="url(#a1997dc419)"><g clip-path="url(#ebd6f594ba)"><g clip-path="url(#23411fa611)"><path fill="#141e46" d="M 247.988281 139.867188 L 272.070312 147.273438 L 265.726562 167.890625 L 241.648438 160.484375 Z M 247.988281 139.867188 " fill-opacity="1" fill-rule="nonzero"/></g></g></g><g clip-path="url(#51fe33bb26)"><g clip-path="url(#e5130732ff)"><g clip-path="url(#50d5682459)"><path fill="#141e46" d="M 212.46875 146.804688 L 237.09375 141.480469 L 241.648438 162.566406 L 217.023438 167.886719 Z M 212.46875 146.804688 " fill-opacity="1" fill-rule="nonzero"/></g></g></g><g clip-path="url(#34307b682b)"><g clip-path="url(#eea667482d)"><g clip-path="url(#b5639627b8)"><path fill="#ffffff" d="M 254.023438 149.402344 L 261.714844 151.769531 L 259.691406 158.351562 L 252 155.988281 Z M 254.023438 149.402344 " fill-opacity="1" fill-rule="nonzero"/></g></g></g><g clip-path="url(#5a508dfc80)"><g clip-path="url(#b7c2c4f11e)"><g clip-path="url(#adebd1efbd)"><path fill="#ffffff" d="M 222.273438 151.507812 L 230.039062 149.398438 L 231.84375 156.046875 L 224.078125 158.15625 Z M 222.273438 151.507812 " fill-opacity="1" fill-rule="nonzero"/></g></g></g><g clip-path="url(#8002ea0dba)"><g clip-path="url(#ffc54a188a)"><g clip-path="url(#42f17b8d8d)"><path fill="#141e46" d="M 224.957031 204.3125 C 217.832031 212.25 205.292969 205.949219 197.613281 202.472656 C 188.4375 198.199219 180.066406 196.964844 171.820312 203.566406 C 171.207031 204.003906 170.488281 204.683594 169.941406 205.292969 C 172.363281 197.4375 182.132812 192.207031 190.195312 194.15625 C 199.859375 196.660156 208.101562 203.070312 218.175781 204.621094 C 220.628906 204.835938 223.316406 205.15625 224.894531 203.15625 " fill-opacity="1" fill-rule="nonzero"/></g></g></g><g clip-path="url(#e07b60b028)"><g clip-path="url(#043ff9b275)"><path fill="#ffffff" d="M 231.84375 160 L 234.945312 160 L 234.945312 163.105469 L 231.84375 163.105469 Z M 231.84375 160 " fill-opacity="1" fill-rule="nonzero"/></g></g><g clip-path="url(#f4e3302699)"><g clip-path="url(#aa0e17babe)"><path fill="#ffffff" d="M 248.703125 159.808594 L 252 159.808594 L 252 163.105469 L 248.703125 163.105469 Z M 248.703125 159.808594 " fill-opacity="1" fill-rule="nonzero"/></g></g><path fill="#ffffff" d="M 245.09375 163.734375 C 245.503906 161.554688 237.625 161.949219 237.738281 163.425781 C 237.820312 164.558594 240.066406 167.425781 241.210938 167.539062 C 242.539062 167.667969 244.875 164.925781 245.09375 163.734375 Z M 245.09375 163.734375 " fill-opacity="1" fill-rule="nonzero"/><path fill="#ffffff" d="M 232.355469 169.574219 C 230.222656 170.28125 226.042969 171.628906 225.652344 171.800781 C 225.269531 171.964844 224.625 171.734375 225.742188 171.238281 C 228.183594 170.148438 232.789062 168.570312 233.402344 168.945312 C 233.757812 169.160156 232.75 169.445312 232.355469 169.574219 Z M 232.355469 169.574219 " fill-opacity="1" fill-rule="nonzero"/><path fill="#ffffff" d="M 232.160156 165.566406 C 229.984375 165.011719 225.738281 163.890625 225.316406 163.824219 C 224.902344 163.757812 224.484375 163.214844 225.695312 163.398438 C 228.339844 163.796875 233.066406 164.953125 233.378906 165.601562 C 233.558594 165.976562 232.5625 165.667969 232.160156 165.566406 Z M 232.160156 165.566406 " fill-opacity="1" fill-rule="nonzero"/><g clip-path="url(#0a5c4613be)"><path fill="#ffffff" d="M 230.296875 167.539062 C 228.050781 167.574219 223.660156 167.609375 223.234375 167.652344 C 222.8125 167.699219 222.273438 167.28125 223.484375 167.144531 C 226.144531 166.832031 231.011719 166.710938 231.480469 167.253906 C 231.753906 167.566406 230.707031 167.53125 230.296875 167.539062 Z M 230.296875 167.539062 " fill-opacity="1" fill-rule="nonzero"/></g><path fill="#ffffff" d="M 250.398438 169.59375 C 252.53125 170.304688 256.703125 171.664062 257.097656 171.832031 C 257.480469 172.003906 258.125 171.769531 257.011719 171.273438 C 254.570312 170.175781 249.96875 168.589844 249.355469 168.964844 C 249 169.179688 250.003906 169.464844 250.398438 169.59375 Z M 250.398438 169.59375 " fill-opacity="1" fill-rule="nonzero"/><path fill="#ffffff" d="M 250.601562 165.585938 C 252.78125 165.039062 257.03125 163.929688 257.453125 163.863281 C 257.867188 163.796875 258.28125 163.257812 257.074219 163.433594 C 254.425781 163.828125 249.695312 164.972656 249.382812 165.617188 C 249.199219 165.992188 250.203125 165.691406 250.601562 165.585938 Z M 250.601562 165.585938 " fill-opacity="1" fill-rule="nonzero"/><g clip-path="url(#ced3975e2d)"><path fill="#ffffff" d="M 252.464844 167.5625 C 254.710938 167.601562 259.097656 167.648438 259.527344 167.695312 C 259.945312 167.738281 260.488281 167.328125 259.277344 167.183594 C 256.617188 166.871094 251.753906 166.734375 251.277344 167.277344 C 251.003906 167.585938 252.050781 167.554688 252.464844 167.5625 Z M 252.464844 167.5625 " fill-opacity="1" fill-rule="nonzero"/></g><g fill="#141e46" fill-opacity="1"><g transform="translate(154.298476, 215.810962)"><g><path d="M 58.578125 -60.109375 L 58.578125 0 L 41.859375 0 L 41.859375 -24.125 L 21.484375 -24.125 L 21.484375 0 L 4.78125 0 L 4.78125 -60.109375 L 21.484375 -60.109375 L 21.484375 -37.515625 L 41.859375 -37.515625 L 41.859375 -60.109375 Z M 58.578125 -60.109375 "/></g></g></g></svg>